<svg width="197" height="38" viewBox="0 0 197 38" fill="none" xmlns="http://www.w3.org/2000/svg">
<path d="M29.2675 28.6188C29.1954 28.8134 29.1882 28.8134 29.2675 28.8711C29.426 29.0584 29.5413 28.9936 29.5197 29.0368C29.6134 28.8638 29.7215 28.7269 29.8152 28.7053L29.9737 28.799C29.9794 28.6324 30.0085 28.4674 30.0602 28.3089C30.1088 28.1703 30.126 28.0226 30.1107 27.8765L30.0026 27.6459C29.9521 27.5594 29.9449 27.545 29.8729 27.4369C29.7431 27.4369 29.7359 27.5882 29.6927 27.6891C29.6442 27.7793 29.6101 27.8766 29.5918 27.9774C29.6268 28.0173 29.6521 28.0647 29.6659 28.1159C29.6796 28.1671 29.6814 28.2208 29.6711 28.2729V28.4819C29.6711 28.5756 29.5413 28.5395 29.4621 28.5611L29.2675 28.6188ZM10.5079 2.05415C10.8322 1.88839 11.1709 1.72984 11.5096 1.58571C11.1709 1.72984 10.8394 1.89561 10.5151 2.06136L10.5079 2.05415ZM15.6824 3.27212V3.10637L15.6032 2.99106C15.5167 2.86854 15.5311 2.65233 15.4951 2.5154V2.34964C15.4951 2.22712 15.5527 2.11903 15.4951 2.00372C15.4374 1.88841 15.423 1.54966 15.4014 1.41994C15.3992 1.31478 15.3823 1.21046 15.3509 1.11005C15.3121 0.977399 15.2808 0.842655 15.2572 0.706462L15.0915 0.533504L15.0266 0.46143C13.8231 0.72506 12.6477 1.10397 11.5169 1.59292L11.5673 1.65778C11.6427 1.75664 11.7034 1.86588 11.7475 1.9821C11.762 2.09937 11.762 2.21796 11.7475 2.33523C11.7161 2.57444 11.7161 2.81671 11.7475 3.05592V3.33698C11.8484 3.43787 11.9277 3.62527 12.043 3.69013L12.2952 3.53877C12.3968 3.4923 12.5078 3.4701 12.6195 3.47391H12.9078C12.9943 3.47391 13.0087 3.53877 13.1096 3.51715C13.2105 3.49553 13.2753 3.43068 13.3762 3.39465C13.4771 3.35861 13.5924 3.32977 13.7005 3.31536C13.9384 3.31536 14.0321 3.17122 14.2194 3.11357C14.4068 3.05591 14.4933 3.00547 14.587 2.98385C14.6406 2.97528 14.6935 2.96325 14.7456 2.94782C14.8257 2.92573 14.9104 2.92573 14.9906 2.94782C15.0698 2.96622 15.1453 2.99788 15.214 3.04149L15.3509 3.11357L15.4446 3.14961C15.5671 3.14961 15.5671 3.30094 15.6608 3.3586L15.6824 3.27212ZM10.5655 3.79102V4.09372C10.5655 4.15137 10.6736 4.15858 10.7745 4.16579L10.8538 4.00724L11.1205 3.964L10.998 3.61084L10.7385 3.69013C10.6809 3.69013 10.616 3.69012 10.58 3.79102H10.5655ZM12.0213 6.11164V6.01795L12.115 5.9603C12.3169 6.0042 12.5258 6.0042 12.7276 5.9603C12.9006 5.9603 13.1384 5.9603 13.2897 5.88823C13.4411 5.81616 13.787 5.8522 14.0104 5.83058V5.95309C14.0967 5.8999 14.1885 5.8564 14.2843 5.82337C14.4573 5.73689 14.5005 5.75852 14.7239 5.78734C14.9473 5.81617 15.0554 5.91705 15.1275 5.88102C15.1996 5.84498 15.2572 5.78734 15.3509 5.80896L15.5095 5.91706C15.6752 5.85941 15.5095 5.68643 15.459 5.59274V5.46302C15.459 5.34051 15.3942 5.26122 15.459 5.1387L15.5095 4.91529V4.79998V4.6054C15.4951 4.49537 15.4951 4.38392 15.5095 4.27389C15.5095 4.15137 15.596 3.8775 15.6104 3.7694H15.5599L15.459 3.71175C15.3509 3.67572 15.3509 4.00002 15.2716 4.01443C15.1616 4.05694 15.0428 4.07178 14.9257 4.05767H14.8392L14.6663 4.10091C14.5365 4.10091 14.4285 4.13696 14.2987 4.14417L13.9672 4.1946C13.7988 4.2386 13.628 4.27231 13.4555 4.29551C13.369 4.29551 13.2321 4.29551 13.1096 4.29551C12.9871 4.29551 12.9222 4.20901 12.8429 4.21622C12.4177 4.21622 12.7132 4.30992 12.4465 4.27389C12.3529 4.27389 12.2664 4.1802 12.1655 4.20903C12.0441 4.23338 11.9214 4.25021 11.7979 4.25946C11.7979 4.36036 11.7547 4.41081 11.7475 4.49009C11.7403 4.56936 11.7835 4.67747 11.7475 4.76395C11.7264 4.87349 11.712 4.98419 11.7042 5.09546C11.7159 5.20084 11.7159 5.30719 11.7042 5.41257L11.7907 5.65041C11.834 5.72969 11.87 5.68644 11.9204 5.82337V5.96752V6.09724L12.0213 6.11164ZM36.7987 12.4249C36.878 12.6483 36.9716 12.8573 37.0437 13.0807C36.9788 12.8789 36.914 12.6771 36.8419 12.4825L36.7987 12.4249ZM28.8711 2.85413C29.217 3.07033 29.5557 3.30096 29.8872 3.53158C29.5557 3.30096 29.217 3.08475 28.8711 2.87575V2.85413ZM0.223642 16.5689C0.281298 16.1509 0.338952 15.7329 0.425435 15.3293C0.331745 15.7329 0.26687 16.1509 0.209214 16.5689H0.223642ZM18.522 8.18002L18.4211 8.32417L18.5003 8.4755L18.8391 8.43227L19.1129 8.52596V8.41786L18.9039 8.28814L18.522 8.18002ZM8.76381 14.7383C8.62688 14.7383 8.66292 14.7383 8.67733 14.8392C8.69174 14.9401 8.8575 14.9257 8.92236 14.9113C8.98722 14.8969 9.07371 14.8392 9.19623 14.8464V14.6807C9.19623 14.5798 9.12416 14.6807 9.03767 14.6158H8.85031L8.76381 14.7383ZM23.4875 18.3418L23.7181 18.2697C23.6404 18.1445 23.5458 18.0305 23.4371 17.931L23.1488 18.1472L23.0263 18.0823L22.9182 18.2409L22.9542 18.4427C22.9542 18.767 23.2569 18.3778 23.2785 18.3418H23.4875ZM24.792 27.127L25.0658 27.2279L25.1019 27.4369V27.5378L25.0658 27.6531C25.0055 27.7653 24.9381 27.8736 24.8641 27.9774C24.792 28.0711 24.7776 28.1936 24.6911 28.3233L24.5614 28.4747C24.4557 28.507 24.3427 28.507 24.237 28.4747C24.1002 28.4673 23.9631 28.4673 23.8263 28.4747H23.4443L23.2497 28.5107L23.0984 28.5684C22.9984 28.5492 22.8973 28.5372 22.7957 28.5323C22.6906 28.4976 22.5817 28.4758 22.4714 28.4675L22.1975 28.4242C22.1975 28.2657 21.9669 28.3377 21.8804 28.3738C21.7939 28.4098 21.6281 28.3738 21.4912 28.417L21.3543 28.5395L21.5417 28.5035L21.7867 28.8206C21.8462 28.8886 21.897 28.9636 21.938 29.044L22.0533 29.2026V29.2674C22.0533 29.3539 21.9236 29.462 21.9308 29.5341L22.0462 29.6494C22.08 29.6739 22.107 29.7065 22.1247 29.7444C22.1424 29.7822 22.15 29.8239 22.147 29.8656C22.1657 29.9583 22.2024 30.0465 22.2551 30.1251C22.2788 30.2071 22.3102 30.2867 22.3488 30.3629C22.4189 30.4483 22.4771 30.5429 22.5218 30.644C22.6082 30.8522 22.7357 31.0409 22.8966 31.1989C23.12 31.4151 23.2785 31.6817 23.4875 31.9196C23.5596 31.9916 23.5596 32.0565 23.4875 32.2006C23.4155 32.3448 23.5308 32.0565 23.7974 32.3592L23.956 32.5105L24.0352 32.5826L24.1794 32.6835H24.2515C24.31 32.7512 24.363 32.8235 24.41 32.8997L24.5325 33.0367L24.5902 33.1736C24.6916 33.2623 24.8058 33.3351 24.9289 33.3898C25.0226 33.4618 25.0658 33.4691 25.1163 33.5772C25.1667 33.6853 25.0442 33.7573 24.9722 33.851C24.8921 33.9703 24.8004 34.0814 24.6983 34.1825C24.5128 34.3572 24.2794 34.4726 24.0281 34.5141C23.9298 34.5292 23.8292 34.5141 23.7398 34.4708C23.654 34.4509 23.5761 34.4057 23.5163 34.3411C23.4155 34.2474 23.12 34.2618 23.0047 34.1825L22.8677 33.9591C22.7764 33.8321 22.6969 33.697 22.6299 33.5555C22.5914 33.4252 22.5601 33.2929 22.5362 33.1592C22.5016 33.0511 22.4607 32.9452 22.4137 32.842L22.2191 32.6835L22.1326 32.6259C22.0337 32.5171 21.9686 32.3818 21.9452 32.2367C21.8958 32.0988 21.8331 31.966 21.7579 31.8403C21.7146 31.6673 21.693 31.6241 21.6714 31.5232C21.6349 31.3928 21.6061 31.2605 21.5849 31.1268C21.5708 31.0167 21.5708 30.9053 21.5849 30.7953C21.5849 30.68 21.4336 30.6223 21.3831 30.4854C21.3327 30.3485 20.9002 30.9539 20.8642 31.0115C20.6016 31.3826 20.3126 31.7342 19.9994 32.0637C19.9209 32.1599 19.8487 32.2609 19.7832 32.3664C19.6318 32.5538 19.6174 32.5322 19.639 32.6186C19.6607 32.7051 19.4228 32.8781 19.3363 33.015C19.2629 33.1717 19.2073 33.336 19.1706 33.5051L19.0985 33.7717C19.0481 33.8366 18.9976 33.7717 18.8967 33.9231C18.7958 34.0744 18.522 34.4276 18.4211 34.5717L18.2337 34.7086L18.1184 34.8168L17.9742 34.8888C17.9166 34.8888 17.9022 34.7591 17.8589 34.8888L17.5346 35.0906C17.4334 35.1866 17.3131 35.2603 17.1815 35.3068C17.0662 35.3068 16.9509 35.242 16.85 35.2203C16.7491 35.1987 16.6698 35.2203 16.6194 35.2203L16.468 35.0185L16.5905 34.8384C16.6257 34.7563 16.6667 34.6768 16.713 34.6005L16.8716 34.3339C16.9944 34.231 17.1055 34.115 17.2031 33.9879C17.2896 33.851 17.3833 33.6853 17.4842 33.5411C17.6457 33.2911 17.8213 33.0504 18.0103 32.8204C18.2604 32.6042 18.4874 32.3627 18.6877 32.0997C18.8823 31.8691 19.0913 31.6385 19.2787 31.379C19.3465 31.3103 19.4046 31.2327 19.4517 31.1484C19.4877 31.0691 19.4517 30.9538 19.5381 30.8818L19.7039 30.6944C19.7595 30.616 19.8101 30.5342 19.8552 30.4494C19.9922 30.2115 20.0931 30.0818 20.2444 29.8512C20.4111 29.5848 20.5557 29.3052 20.6768 29.0152C20.7034 28.919 20.7155 28.8194 20.7129 28.7197L20.6768 28.554V28.3954L20.5759 28.3161C20.4534 28.3161 20.4678 28.3594 20.3309 28.3522C20.2016 28.3376 20.071 28.3376 19.9417 28.3522C19.8073 28.3594 19.6726 28.3594 19.5381 28.3522L19.3363 28.3161L19.1346 28.1504V28.2801L18.94 28.3449C18.7238 28.3449 18.5436 28.2657 18.3418 28.3954L18.1905 28.3305C18.1208 28.1782 18.0285 28.0372 17.9166 27.9125L17.8085 27.826C17.7508 27.826 17.7652 27.8621 17.7148 27.7756V27.7324L17.6499 27.3432L17.7436 27.1774C17.931 27.1774 18.0896 27.2927 18.2769 27.3072C18.4485 27.3353 18.622 27.3497 18.7958 27.3504H19.0336L19.1346 27.3936H19.2571C19.3481 27.3637 19.4317 27.3145 19.5021 27.2495C19.6078 27.2156 19.7163 27.1915 19.8264 27.1774C20.0434 27.1744 20.2603 27.1888 20.475 27.2207H20.7921C20.9311 27.2352 21.0712 27.2352 21.2101 27.2207C21.2969 27.1926 21.3862 27.1733 21.4768 27.163C21.6804 27.1848 21.8858 27.1848 22.0894 27.163C22.2136 27.1293 22.3325 27.0784 22.4425 27.0117C22.4425 26.918 22.4425 26.8171 22.4425 26.7234C22.4712 26.525 22.4712 26.3236 22.4425 26.1252C22.4425 25.491 22.4425 25.4045 22.4425 25.2892C22.4333 25.1549 22.4333 25.02 22.4425 24.8856C22.4296 24.7484 22.4493 24.6101 22.5002 24.482C22.5002 24.2442 22.5002 23.992 22.5002 23.7613C22.5275 23.5605 22.5275 23.3568 22.5002 23.156V22.8605C22.5002 22.7668 22.5651 21.6065 22.5651 21.4912C22.5651 21.3759 22.738 20.5471 22.5651 20.4606C22.3921 20.3741 22.5002 20.1003 22.5146 19.9921C22.5412 19.8486 22.5236 19.7003 22.4641 19.5669C22.4318 19.1736 22.4318 18.7783 22.4641 18.385C22.4641 18.176 22.565 18.0391 22.4641 17.8517C22.3632 17.6643 22.4641 17.4481 22.4209 17.3256C22.414 17.2152 22.414 17.1045 22.4209 16.9941V16.7851V16.4824C22.3416 16.4391 22.356 16.3382 22.356 16.2662V16.0788C22.3713 15.945 22.4053 15.814 22.4569 15.6896C22.4569 15.5527 22.4209 15.5094 22.356 15.3869L22.2407 15.214C22.1542 15.1779 22.1398 15.1203 22.0678 15.0987C21.9957 15.077 21.9453 14.9545 21.866 14.8969L21.7435 14.7888C21.61 14.6408 21.4544 14.5144 21.2822 14.414C21.2822 14.3059 21.1597 14.1546 21.2029 14.0465H21.2606L21.311 14.0032L21.4119 13.9384L21.484 13.8951H21.6426H21.7723L21.9669 13.9744L22.0822 14.0537L22.2335 14.1041C22.3354 14.1303 22.439 14.1495 22.5434 14.1618C22.6442 14.1688 22.7453 14.1688 22.8461 14.1618C22.9934 14.1573 23.1401 14.1825 23.2775 14.2357C23.4149 14.2889 23.5402 14.3692 23.6461 14.4717L23.8335 14.659C23.8628 14.6965 23.887 14.7377 23.9055 14.7815C23.956 14.9041 24.0425 14.9401 24.1362 15.0194C24.2298 15.0987 24.201 15.1491 24.2226 15.2356V15.4374C24.2226 15.6031 24.0208 15.6464 23.992 15.7833C23.9632 15.9202 24.1434 15.9995 24.1289 16.1437C24.1145 16.2878 24.1289 16.3527 24.0785 16.4536C24.046 16.588 24.0314 16.7261 24.0352 16.8644C24.0137 17.0222 24.0137 17.1822 24.0352 17.34C24.0824 17.4926 24.0824 17.6559 24.0352 17.8085C24.0026 17.9726 24.0026 18.1416 24.0352 18.3057C24.0605 18.5718 24.0605 18.8396 24.0352 19.1057C24.0352 19.4228 24.0352 19.7471 24.0352 20.057C24.0535 20.2006 24.0535 20.3459 24.0352 20.4894C23.9992 20.5903 24.0353 20.5759 23.9776 20.648C23.9281 20.7864 23.9133 20.9349 23.9344 21.0804C23.9344 21.3615 23.8911 21.6425 23.9344 21.938C23.9559 22.3173 23.9559 22.6974 23.9344 23.0767C23.9258 23.2822 23.9427 23.488 23.9848 23.6893C24.0785 24.0785 23.8479 24.5541 24.1073 24.9145C24.1073 25.0586 24.1073 25.2027 24.1073 25.3541C24.1073 25.5054 24.1073 25.5271 23.9992 25.6712C23.9406 25.7515 23.8877 25.8358 23.8407 25.9234L23.9992 26.082C24.0277 26.1809 24.0277 26.2858 23.9992 26.3847C23.9632 26.4856 23.8335 26.5216 23.7542 26.5937L23.6677 26.745C23.7598 26.7628 23.8494 26.7918 23.9344 26.8315C24.0671 26.8566 24.1957 26.9003 24.3163 26.9612C24.4028 27.0261 24.4244 27.0765 24.5181 27.091C24.6118 27.1054 24.6118 27.091 24.7631 27.091L24.792 27.127ZM21.3471 15.2644C21.5561 15.4158 21.448 15.459 21.5273 15.632L21.6281 15.7761C21.6646 16.1524 21.6646 16.5313 21.6281 16.9076C21.6281 17.0734 21.7795 17.304 21.6642 17.4265C21.6642 17.4265 21.6209 18.2409 21.6281 18.5291L21.5921 18.6372C21.5674 18.7415 21.5662 18.8498 21.5887 18.9546C21.6111 19.0593 21.6566 19.1577 21.7218 19.2426C21.866 19.4228 21.7723 19.7183 21.7723 19.9633L21.6209 20.0498L21.5489 20.3453C21.5115 20.6345 21.4922 20.9257 21.4912 21.2173C21.4912 21.3614 21.4912 21.4984 21.4912 21.6497V21.8659V22.1975C21.3759 22.5362 21.5273 22.7164 21.5273 23.0551C21.5417 23.1603 21.5417 23.267 21.5273 23.3722C21.4517 23.7577 21.4517 24.1542 21.5273 24.5397C21.5273 24.7127 21.6354 24.8784 21.5273 25.0298C21.4191 25.1811 21.3903 25.1235 21.3399 25.246C21.3179 25.3252 21.2839 25.4006 21.239 25.4694C21.1988 25.5202 21.1555 25.5683 21.1092 25.6135C21.066 25.6496 20.9651 25.8297 20.8714 25.9306C20.7777 26.0315 20.6696 26.2045 20.4822 26.2405C20.2949 26.2766 20.3453 26.1829 20.2444 26.1324C20.1435 26.082 20.1651 25.7288 20.1435 25.5559C20.1326 25.3446 20.1326 25.1329 20.1435 24.9217C20.1435 24.7055 20.0426 24.6622 20.0498 24.4244C20.057 24.1866 20.0498 23.8046 20.1003 23.4875C20.1003 23.3001 20.2012 23.1416 20.2372 22.9614C20.2837 22.6653 20.2837 22.3638 20.2372 22.0677C20.2372 21.8011 20.2372 21.5416 20.2372 21.2822V21.0804C20.2119 20.8866 20.2119 20.6904 20.2372 20.4966H20.403L20.5399 20.2372V20.1651C20.6048 20.0714 20.7057 20.0354 20.7129 20.0138V19.9417C20.7129 19.8985 20.4678 19.7903 20.3669 19.7831C20.266 19.7759 20.1363 19.7183 20.0282 19.7831L20.1075 19.8768L20.1579 20.1291L20.1075 20.2012L19.7111 20.2804C19.5742 20.3309 19.5021 20.2804 19.3868 20.3741L19.2354 20.5038C19.0985 20.5038 18.9904 20.4029 18.8679 20.3813C18.73 20.3751 18.5918 20.3872 18.4571 20.4174C18.3784 20.4305 18.298 20.4305 18.2193 20.4174C18.0463 20.4174 17.931 20.5399 17.7508 20.4966C17.5943 20.4603 17.4481 20.3889 17.3232 20.2878C17.1984 20.1867 17.0981 20.0584 17.0301 19.9129C16.9869 19.8192 16.9725 19.8408 16.9148 19.7615C16.8572 19.6822 16.9148 19.5093 16.9148 19.4012C17.0456 19.4077 17.1766 19.3956 17.304 19.3651C17.4337 19.3219 17.477 19.2282 17.6283 19.2282C17.7797 19.2282 18.1112 19.2714 18.349 19.2859C18.5402 19.2794 18.7306 19.2577 18.9184 19.221L19.2066 19.1634C19.3693 19.1416 19.5341 19.1416 19.6967 19.1634C19.7688 19.1634 20.194 19.3579 20.0282 19.1129C19.9778 19.0192 20.2084 18.8535 20.2012 18.7598L20.1435 18.6661V18.5724C20.1157 18.267 20.1279 17.9594 20.1796 17.6571H20.3165C20.194 17.5634 20.3165 17.4121 20.1868 17.2896C20.057 17.167 20.0426 17.2175 20.0282 17.0517C20.0356 16.9486 20.0356 16.845 20.0282 16.7418C20.0066 16.649 19.9898 16.5553 19.9778 16.4608C19.9949 16.2604 19.9385 16.0606 19.8192 15.8986L19.5814 15.7545C19.4733 15.668 19.43 15.495 19.3363 15.3797C19.2427 15.2644 19.1994 15.1563 18.9976 15.0626C19.0225 14.9987 19.0592 14.94 19.1057 14.8896L19.1706 14.7527C19.2095 14.6948 19.2646 14.6496 19.3291 14.623C19.4228 14.6951 19.6174 14.6662 19.7327 14.623C19.848 14.5798 19.9273 14.8176 20.1003 14.9041C20.2732 14.9906 20.403 14.9689 20.4895 15.1275V15.0122H20.7345C20.9417 15.0484 21.1385 15.1296 21.311 15.25L21.3471 15.2644ZM20.0138 13.4195C20.0138 13.6645 20.0138 13.8951 19.9778 14.1401C19.8371 14.145 19.6975 14.1146 19.5716 14.0516C19.4457 13.9887 19.3376 13.8952 19.2571 13.7798C19.3508 13.5564 19.6102 13.6068 19.7399 13.4122C19.8239 13.4072 19.9082 13.4072 19.9922 13.4122L20.0138 13.4195ZM23.3001 35.5302L23.365 35.3284C23.365 35.3284 23.6028 35.278 23.6028 35.1627C23.6028 35.1627 23.8911 35.1627 23.956 35.3573C23.956 35.3573 23.8839 35.7032 24.1578 35.5446H24.3091L24.3596 35.7248C24.3596 35.7248 24.1506 35.8689 24.2154 35.9915C24.2154 35.9915 23.6821 35.9338 23.5812 35.6744C23.5812 35.6744 23.4731 35.3717 23.3001 35.5663V35.5302ZM24.2226 8.98C24.2226 8.84307 24.2226 8.70612 24.2226 8.56199C24.3403 8.54692 24.4561 8.52037 24.5686 8.48272H24.7559C24.7127 8.70613 24.7559 8.72774 25.001 8.76378C25.246 8.79981 25.246 9.03764 25.2893 9.16736C25.153 9.15433 25.018 9.13024 24.8857 9.09531C24.6623 9.05928 24.3956 8.98721 24.2226 8.95838V8.98ZM9.70072 6.73864C9.70072 6.73864 9.62864 6.7891 9.66467 6.97648V7.19989H9.51333C9.51333 7.19989 9.32596 6.86116 9.1602 6.91881V6.66659L9.35478 6.54406L9.70072 6.73864ZM10.6808 25.7649C10.9007 25.7323 11.1241 25.7323 11.3439 25.7649L11.625 25.8874C11.7112 25.9589 11.812 26.0106 11.9204 26.0387C12.052 26.0705 12.1819 26.109 12.3096 26.154C12.4321 26.154 12.3961 26.2261 12.4538 26.3126C12.4787 26.3526 12.4919 26.3988 12.4919 26.4459C12.4919 26.4931 12.4787 26.5392 12.4538 26.5792L12.3601 26.709L12.2231 26.8171L11.9853 26.9684C11.5967 26.9971 11.2064 26.9971 10.8178 26.9684C10.5727 26.9684 10.3133 26.9252 10.0971 26.9684C9.88088 27.0117 9.5782 27.0333 9.29714 27.0477H8.57644C8.30964 27.0308 8.04186 27.0576 7.78368 27.127C7.64163 27.185 7.49024 27.2167 7.33686 27.2207C7.13258 27.2222 6.92926 27.2488 6.73148 27.2999C6.58273 27.3107 6.43338 27.3107 6.28463 27.2999C6.10446 27.2999 5.9315 27.4008 5.75133 27.4008L5.58558 27.5378C5.26127 27.5378 4.95137 27.581 4.63426 27.6099C4.31716 27.6387 4.38203 27.6098 4.23068 27.4585C4.07934 27.3071 4.02888 27.3864 3.81988 27.2423C3.69282 27.2176 3.57093 27.1713 3.45954 27.1054L3.33701 27.0189L3.28658 26.8964C3.22892 26.781 3.02712 26.6874 2.98388 26.5865L3.04874 26.291C3.13386 26.2693 3.22307 26.2693 3.3082 26.291C3.39298 26.3269 3.48304 26.3488 3.57485 26.3558C3.83977 26.3301 4.10707 26.3446 4.36761 26.3991C4.50454 26.4567 4.49732 26.5216 4.67029 26.5288H5.10271C5.24885 26.5189 5.39367 26.4947 5.53513 26.4567C5.87385 26.4207 6.20536 26.5 6.53688 26.4567L6.94046 26.4063C7.1927 26.3703 7.43774 26.3486 7.66115 26.327C7.76026 26.3153 7.85463 26.278 7.93502 26.2189L7.97826 25.9955C7.9206 25.8514 7.81252 25.736 7.74765 25.5919C7.71218 25.4379 7.64053 25.2947 7.53865 25.1739C7.08461 24.6983 7.23595 25.073 7.03416 24.5325C6.92605 24.2802 6.70985 24.3451 6.6594 24.0929C6.71706 23.9776 7.02694 23.9415 7.18549 23.7974C7.26075 23.8141 7.33347 23.8408 7.40171 23.8767C7.48099 23.8767 7.58909 23.8767 7.66837 23.9632C7.76293 24.0361 7.84771 24.1208 7.92061 24.2154C8.00577 24.2958 8.1001 24.366 8.20167 24.4244C8.33331 24.504 8.47062 24.5739 8.61247 24.6334L8.82148 24.7055C8.95772 24.8166 9.07886 24.945 9.18182 25.0874L9.28271 25.246V25.4622C9.32196 25.5865 9.32196 25.7199 9.28271 25.8442C9.28271 25.8946 9.10974 26.0603 9.28271 26.0603C9.44108 26.0711 9.6 26.0711 9.75837 26.0603C9.86637 26.0668 9.97468 26.0668 10.0827 26.0603C10.2978 26.046 10.5025 25.9626 10.6664 25.8225L10.6808 25.7649ZM25.9235 21.2317C25.8586 21.0876 26.1901 20.9435 26.2622 20.8209L26.3703 20.5254L26.5649 20.4246C26.6009 20.4246 26.7306 20.7056 26.7234 20.9074C26.7162 21.1092 27.509 21.1381 27.6099 21.3038C27.7108 21.4696 27.4297 21.6209 27.3216 21.6642C27.0621 21.7578 27.0117 21.6137 26.7811 21.5849C26.5847 21.5633 26.3865 21.5633 26.1901 21.5849C26.0845 21.4808 25.9946 21.3618 25.9235 21.2317ZM27.6747 28.7918V28.8638V28.9575C27.5955 28.9575 27.4225 29.0296 27.4297 29.0008L27.372 28.8134L27.2567 28.7341C27.3576 28.626 27.3216 28.626 27.4009 28.626H27.4369H27.6243C27.718 28.626 27.6603 28.7125 27.6603 28.7702L27.6747 28.7918ZM36.7338 12.3024L36.7771 12.3456C35.4216 8.75269 33.0126 5.65291 29.8657 3.45229C29.8657 3.71895 29.8657 3.9784 29.8657 4.22344L29.9089 4.46125C29.9089 4.59819 29.7936 4.62703 29.7503 4.77117C29.9089 4.85044 29.9449 4.87927 29.9377 5.05944C29.92 5.19821 29.92 5.33866 29.9377 5.47743C29.9483 5.60934 29.9483 5.74191 29.9377 5.87382C29.8479 5.92121 29.7538 5.95983 29.6566 5.98914C29.4837 5.98914 29.5413 5.98913 29.4332 5.89544C29.3251 5.80175 29.0801 6.03237 29.0873 6.00354L29.2098 6.32786C29.2602 6.32786 29.671 6.27019 29.7575 6.26298H29.9089V6.39272C30.0026 6.59451 30.3845 6.5945 30.5647 6.51523C30.7449 6.43595 30.7161 6.37109 30.817 6.33505H31.0476H31.2566H31.3142L31.4512 6.39991C31.5553 6.45047 31.6675 6.48219 31.7827 6.49361H31.934C32.071 6.45037 32.0277 6.32784 32.2295 6.39991L32.4457 6.54406C32.561 6.63775 32.734 6.76027 32.8349 6.86117C32.9358 6.96206 32.8926 7.10619 32.9286 7.27916C32.8332 7.34278 32.7439 7.41518 32.6619 7.49538C32.5304 7.60718 32.3851 7.70163 32.2295 7.77643C32.0926 7.8413 31.9989 7.77645 31.8548 7.8341C31.731 7.87694 31.5965 7.87694 31.4728 7.8341C31.2097 7.76489 30.9364 7.74293 30.6656 7.76924C30.5255 7.76829 30.3858 7.75623 30.2476 7.7332C30.156 7.69576 30.0669 7.65243 29.9809 7.60348H29.9089C29.9089 7.60348 29.8296 7.60347 29.7431 7.64672V7.91337C29.7541 8.06932 29.7541 8.22585 29.7431 8.38181L29.6134 8.70613C29.6566 8.80703 29.6855 8.82143 29.7215 8.90071C29.7215 9.0953 29.6566 9.19621 29.7936 9.25386C29.7863 9.36666 29.7863 9.4798 29.7936 9.59259C29.7829 9.74856 29.7829 9.90506 29.7936 10.061C29.8022 10.2578 29.7803 10.4547 29.7287 10.6448C29.7015 10.7877 29.6822 10.9321 29.6711 11.0772C29.6711 11.2574 29.4549 11.315 29.3684 11.4808C29.3161 11.6032 29.2704 11.7283 29.2314 11.8555C29.3348 11.7986 29.4526 11.7736 29.5701 11.7835C29.687 11.7991 29.8027 11.8232 29.9161 11.8555C30.1106 11.8607 30.304 11.8873 30.4926 11.9348C30.6656 12.0141 30.8242 12.1655 30.9899 12.2519C31.1696 12.3572 31.3365 12.4829 31.4872 12.6267C31.6025 12.7276 31.8691 12.8213 31.9124 12.9726C31.9556 13.124 31.9124 13.0807 31.9124 13.1456C31.8963 13.2523 31.8747 13.3582 31.8475 13.4627C31.7755 13.6357 31.5953 13.5636 31.4151 13.5924C31.2349 13.6212 31.0259 13.8302 30.7449 13.8014C30.298 13.8014 29.8584 13.5852 29.4116 13.5636C29.1514 13.4986 28.8791 13.4986 28.6188 13.5636C28.3882 13.6212 28.1936 13.5636 27.9558 13.6357C27.8405 13.6717 27.8693 13.578 27.7612 13.5348C27.8243 13.4605 27.9107 13.4097 28.0063 13.3906H28.1504L28.0927 13.2609L27.8549 13.1312C27.754 13.1312 27.6964 13.1888 27.5955 13.2249L27.5162 13.4483L27.4297 13.5203H27.2567C27.1627 13.5394 27.0709 13.5684 26.9829 13.6068C26.7658 13.6101 26.5489 13.5957 26.3342 13.5636C25.9322 13.5636 25.5304 13.5853 25.1307 13.6284C24.6767 13.6284 24.1217 13.751 23.6893 13.7942C23.3935 13.8242 23.1054 13.9072 22.8389 14.0392L22.2335 13.9023C22.0965 13.8854 21.9642 13.8413 21.8444 13.7726C21.7439 13.7157 21.6577 13.6369 21.5921 13.542C21.5372 13.4055 21.5372 13.2532 21.5921 13.1168L21.9092 13.0159L22.1831 12.7996V12.5834L21.7362 12.6915C21.6858 12.6195 21.6642 12.6339 21.6858 12.5546V12.4105C21.6562 12.2604 21.6345 12.1088 21.6209 11.9565C21.6209 11.7619 21.6209 11.5168 21.6642 11.4087C21.7074 11.3006 21.6642 11.1853 21.6642 11.07C21.729 10.8178 21.7723 10.6088 21.8371 10.3493C21.902 10.0899 21.657 9.8232 21.6498 9.62861C21.6426 9.43403 21.5561 9.51331 21.5849 9.34034C21.6137 9.16738 22.0317 9.13855 22.1543 9.13855C22.2768 9.13855 22.3993 9.13855 22.4569 9.23224C22.5146 9.32593 22.529 9.36197 22.7308 9.41242C22.7933 9.42639 22.8539 9.44818 22.911 9.47728C22.9902 9.52052 23.1272 9.56376 23.1776 9.63583L23.2425 9.83041L23.401 10.0538C23.469 10.1581 23.4948 10.2844 23.4731 10.4069C23.4547 10.5529 23.4547 10.7006 23.4731 10.8466C23.4881 10.9798 23.4656 11.1146 23.4082 11.2358L23.2713 11.3655V11.6105C23.2948 11.9136 23.2827 12.2183 23.2353 12.5186H23.4227C23.7542 12.5762 24.0929 12.5186 24.4244 12.5618C24.5037 12.5618 24.4605 12.5618 24.619 12.5114L24.7343 12.4609H25.001C25.1114 12.4681 25.2221 12.4681 25.3325 12.4609H25.5487L25.6424 12.5258H25.909C26.2117 12.5258 26.3343 12.4033 26.6297 12.3817C26.8737 12.3719 27.1156 12.3332 27.3504 12.2663C27.6027 12.1727 27.8765 12.2663 28.1288 12.2663C28.381 12.2663 28.1288 12.2159 28.4098 12.1727L28.6477 12.0934L28.5684 11.9853C28.5208 11.882 28.4869 11.773 28.4675 11.661C28.4675 11.5024 28.4098 11.3511 28.3882 11.1853C28.3755 11.0642 28.3562 10.944 28.3306 10.825C28.3053 10.7218 28.2666 10.6225 28.2153 10.5295L28.3306 9.96013C28.3916 9.76295 28.3916 9.55192 28.3306 9.35475C28.3088 9.2066 28.3088 9.05607 28.3306 8.90792C28.3306 8.7782 28.3306 8.48271 28.3306 8.36019C28.3333 8.25616 28.3553 8.15354 28.3954 8.05751C28.4426 8.00129 28.4658 7.92887 28.4603 7.85572C28.4603 7.76203 28.4098 7.66113 28.4171 7.56024C28.4171 6.99089 28.4171 6.40712 28.4171 5.83778C28.399 5.69661 28.399 5.55373 28.4171 5.41257L28.3306 5.46302L28.2441 5.38374C28.3306 5.32608 28.3594 5.20357 28.4098 5.11708C28.4603 5.0306 28.5107 5.00178 28.5035 4.85765L28.4603 4.13696C28.4425 3.95241 28.4425 3.76656 28.4603 3.58201L28.6405 3.49553L28.3882 3.34419C28.3568 3.10949 28.2622 2.88777 28.1144 2.70279C27.9774 2.55865 27.7612 2.43613 27.6675 2.24875V2.17668C25.9655 1.30589 24.1402 0.700722 22.2551 0.382165V0.43981C22.3251 0.713668 22.3686 0.993629 22.3849 1.27581C22.3849 1.45599 22.3128 1.65779 22.3056 1.86679C22.2984 2.07579 22.3056 2.36406 22.3056 2.58748C22.0678 2.68837 22.1038 2.33522 22.0245 2.11901C21.8948 1.77308 21.7795 1.7947 21.8516 1.39832C21.9137 1.19231 21.9642 0.982983 22.0029 0.771322V0.641603C22.0032 0.503896 22.0153 0.366461 22.0389 0.230804C21.0998 0.0810021 20.1504 0.0039163 19.1994 0.000199727C18.2343 -0.0043228 17.2703 0.0679657 16.3167 0.216398C16.4489 0.246251 16.5755 0.297357 16.6914 0.367737L16.7995 0.511884C16.8477 0.60204 16.92 0.676923 17.0085 0.728082L17.2463 0.828989C17.3472 0.937093 17.3184 1.34068 17.3256 1.47761C17.3552 1.66378 17.3744 1.85145 17.3833 2.03974C17.3807 2.13185 17.3478 2.22053 17.2896 2.29199L17.2247 2.43612L17.1454 2.55143C17.1454 2.6307 17.1454 2.74603 17.1454 2.83251C17.1454 3.08475 17.0878 3.41627 17.0662 3.64689C17.0446 3.87751 17.1094 4.20902 17.0662 4.46847C17.0662 4.59099 17.0229 4.64864 17.0085 4.76395C16.9826 4.87739 16.9705 4.99355 16.9725 5.10989C17.0083 5.31252 17.0083 5.51984 16.9725 5.72246H17.0229C17.0229 5.72246 17.0662 6.07562 17.0734 6.16931C17.0734 6.472 16.8428 6.66659 16.641 6.84676C16.4392 7.02693 16.5329 7.04855 16.3527 7.02693C16.1725 7.00531 16.1077 6.98367 15.9851 6.96205C15.8626 6.94043 15.4951 6.96207 15.3437 6.79631C15.0843 6.50803 14.551 6.63775 14.2339 6.63775C14.0609 6.63775 13.996 6.56568 13.8447 6.5873C13.6933 6.60892 13.7366 6.66658 13.6068 6.65937L13.6934 6.62333H13.5564H13.6068C13.4771 6.62333 13.2537 6.67378 13.2681 6.67378C13.1672 6.67378 13.1096 6.67378 12.9943 6.67378C12.9369 6.66588 12.8787 6.66588 12.8213 6.67378L12.6267 6.70983C12.4177 6.70983 12.3817 6.83233 12.2231 6.94043C12.1292 7.01455 12.0109 7.05059 11.8916 7.04134L11.7691 6.9981C11.6743 6.97622 11.5757 6.97622 11.4808 6.9981C11.4182 7.02486 11.3508 7.03866 11.2826 7.03866C11.2145 7.03866 11.1471 7.02486 11.0844 6.9981C10.9331 6.91882 10.8106 6.83233 10.652 6.76747C10.4935 6.70261 10.3926 6.71702 10.3566 6.5873V6.44315L10.3205 6.26298L10.3854 6.14048L10.443 6.03238C10.5079 5.86662 10.443 5.82336 10.443 5.6576C10.4376 5.5664 10.4376 5.47494 10.443 5.38374C10.443 5.20356 10.443 5.14592 10.443 4.96575V4.85043C10.4283 4.74766 10.4283 4.64332 10.443 4.54054C10.443 4.38199 10.5583 4.23063 10.5583 4.07929C10.5583 3.92794 10.4214 3.92074 10.3854 3.83426C10.3708 3.72182 10.3708 3.60797 10.3854 3.49553C10.3854 3.38022 10.3854 3.27933 10.3421 3.16402C10.3421 2.91178 10.3421 2.91899 10.3421 2.67396C10.3383 2.59953 10.3383 2.52496 10.3421 2.45054C10.3461 2.38815 10.3461 2.32555 10.3421 2.26316C10.3421 2.2055 10.4286 2.26317 10.4358 2.16227V2.09739C9.42087 2.62357 8.45596 3.24111 7.55305 3.94236L7.11344 4.46125L7.53865 4.82881L7.42333 5.22521C7.15668 5.01621 6.70264 6.03957 6.70264 6.03957L6.24139 5.93868L6.06843 5.57112C6.04524 5.44231 6.06027 5.30953 6.11167 5.18916C3.23268 7.85725 1.2512 11.3519 0.439841 15.1923C0.829014 15.1923 1.16053 15.1347 1.58574 15.1923C1.95297 15.2138 2.32115 15.2138 2.68839 15.1923C2.99106 15.1853 3.29252 15.1515 3.58926 15.0914C3.71898 15.0914 5.26127 15.2212 5.40541 15.0266C5.40541 14.9689 5.57116 14.9545 5.66485 14.9257C5.75552 14.9108 5.84804 14.9108 5.93871 14.9257C6.12609 14.9257 6.3423 14.9257 6.54409 14.9257C6.74588 14.9257 6.93327 14.8536 7.13506 14.8464C7.37751 14.8407 7.61885 14.8118 7.85575 14.7599L8.0215 14.8752C8.15959 14.7264 8.24558 14.5367 8.26653 14.3347C8.26653 14.1473 8.37464 13.9528 8.38906 13.7726C8.40315 13.5927 8.40315 13.412 8.38906 13.2321C8.38906 13.0447 8.38906 13.1528 8.38906 12.915C8.37567 12.8145 8.37567 12.7127 8.38906 12.6123C8.38906 12.4826 8.38906 12.2303 8.38906 12.115C8.38906 11.9997 8.2233 12.0357 8.07195 11.9853C7.95126 11.9447 7.8245 11.9252 7.6972 11.9276C7.18551 11.9276 6.76751 12.151 6.25582 12.0646C6.09479 12.0253 5.93094 11.9988 5.76575 11.9853C5.67207 11.9853 5.58558 11.9853 5.49189 11.9853L5.23243 12.079C5.08108 12.079 5.05226 11.9853 4.94416 11.8844C4.89377 11.8423 4.8346 11.8121 4.771 11.7959C4.7074 11.7796 4.64097 11.7779 4.5766 11.7907L4.32437 12.1294C4.17017 12.1947 4.00767 12.2384 3.8415 12.2591C3.69736 12.2591 3.61809 12.1943 3.45954 12.1871C3.30098 12.1798 3.17125 12.1871 3.04874 12.1438C2.92622 12.1006 2.87578 11.9925 2.7893 11.9348C2.70282 11.8772 2.5875 11.8483 2.49381 11.7835C2.40012 11.7186 2.09744 11.4231 2.1623 11.2574C2.22716 11.0916 2.47219 11.0268 2.55867 11.0268C2.64516 11.0268 2.83253 11.1132 2.96226 11.1204C3.27787 11.1639 3.59796 11.1639 3.91357 11.1204C4.29525 11.0354 4.68336 10.9823 5.07388 10.9619C5.34774 10.9619 5.6216 10.8898 5.88826 10.8682C6.15492 10.8466 6.19816 10.825 6.36392 10.7889C6.65219 10.7241 6.94767 10.7097 7.23595 10.652C7.49669 10.5755 7.76489 10.5272 8.03593 10.5079C8.13682 10.5079 8.2233 10.5079 8.30258 10.4718C8.38185 10.4358 8.36745 10.3133 8.46834 10.27C8.62567 10.2421 8.78666 10.2421 8.94398 10.27C9.11288 10.3095 9.279 10.3601 9.44126 10.4214C9.59845 10.4393 9.74284 10.5166 9.84484 10.6376C9.94951 10.7844 10.0435 10.9385 10.1259 11.0988C10.1836 11.2069 10.2917 11.2862 10.3349 11.3943C10.3822 11.5346 10.3822 11.6864 10.3349 11.8267C10.2917 11.9132 10.234 11.9348 10.2124 12.0285V12.2663C10.2339 12.5061 10.2339 12.7473 10.2124 12.987C10.1418 13.4075 10.0308 13.8202 9.88089 14.2194C9.83651 14.3189 9.80268 14.4228 9.77998 14.5293C9.77998 14.6518 9.60702 14.6662 9.51333 14.7599C9.51333 14.832 10.0539 14.7239 10.1692 14.7239C10.4212 14.737 10.6738 14.737 10.9259 14.7239C11.2214 14.6807 11.4808 14.5725 11.7763 14.5365L12.2375 14.4789C12.5691 14.4789 12.7204 14.4068 12.8934 14.4068C13.0282 14.4251 13.1595 14.464 13.2826 14.5221C13.2177 14.4212 13.16 14.3419 13.1528 14.3203C13.1178 14.2564 13.1003 14.1842 13.1024 14.1113C13.1024 13.9383 13.0447 13.7726 13.0447 13.5636C13.0716 13.4026 13.1176 13.2453 13.1816 13.0951C13.2249 12.9005 13.1816 12.6915 13.1816 12.4898C13.1816 12.288 13.2681 12.151 13.3114 11.9709C13.3301 11.8349 13.3566 11.7002 13.3907 11.5673C13.47 11.2845 13.47 10.9852 13.3907 10.7024L13.2537 10.0754C13.2537 9.98896 13.2537 10.0754 13.2105 10.0034L13.0952 9.90248L13.0015 9.72952L12.8862 9.55654L12.9943 9.28989C12.9294 9.22503 12.8357 9.28989 12.6844 9.28989C12.5013 9.32408 12.3157 9.34335 12.1294 9.34753C11.9709 9.34753 11.6826 9.34753 11.5241 9.34753L9.96737 9.44123C9.57811 9.45942 9.19173 9.51739 8.81426 9.61421C8.6826 9.66135 8.54325 9.68335 8.40346 9.67907C8.29482 9.65035 8.18059 9.65035 8.07195 9.67907C7.62852 9.6912 7.18815 9.75653 6.76029 9.87365C6.65118 9.92836 6.52723 9.94607 6.40716 9.9241C6.2414 9.9241 6.02519 9.83762 5.85943 9.816C5.72258 9.82295 5.58549 9.82295 5.44865 9.816C5.36217 9.816 5.36217 9.75114 5.2901 9.67907C5.21803 9.607 5.09551 9.53493 5.01623 9.43404C4.93695 9.33314 4.90092 9.21782 4.81444 9.13134C4.72796 9.04485 4.62706 9.03765 4.59103 8.90792L4.52617 8.60522C4.58382 8.51153 4.72795 8.49713 4.85046 8.4755C4.97298 8.45388 5.04506 8.54759 5.15316 8.57641C5.26127 8.60524 5.39818 8.53317 5.5207 8.57641C5.61424 8.58391 5.70824 8.58391 5.80178 8.57641C6.00824 8.58719 6.21511 8.58719 6.42156 8.57641C6.69158 8.56913 6.96104 8.54748 7.22876 8.51155C7.45938 8.51155 7.94944 8.51155 8.16565 8.51155H8.82148C9.10975 8.51155 9.38361 8.43948 9.67189 8.43948C10.4981 8.48046 11.3255 8.38798 12.1222 8.16561C12.2625 8.13688 12.4072 8.13688 12.5474 8.16561H12.7564L12.9366 8.09354H13.6573C13.8014 8.09354 13.9023 8.02868 14.0176 8.02868C14.133 8.02868 14.2843 8.15121 14.414 8.12959L14.5582 8.00706C14.6415 7.98614 14.7234 7.95966 14.8032 7.9278C14.9139 7.88622 15.0309 7.86425 15.1491 7.86291C15.4302 7.86291 15.7185 7.86291 16.0068 7.86291C16.295 7.86291 16.504 7.79086 16.7635 7.81248C17.0229 7.8341 17.1022 7.726 17.3112 7.69717C17.5202 7.66834 17.6499 7.5314 17.8229 7.55302C17.9959 7.57464 18.2697 7.6323 18.4571 7.64672C18.6221 7.67063 18.7769 7.74057 18.9039 7.84851C19.0553 7.92778 19.012 8.17281 19.1922 8.1584C19.3724 8.14399 19.3291 8.05029 19.43 8.06471H19.4877C19.5963 7.815 19.724 7.57406 19.8697 7.34402C20.0164 7.21753 20.1758 7.10645 20.3453 7.0125C20.526 6.84813 20.6793 6.65592 20.7993 6.44315C20.9115 6.21636 21.06 6.00945 21.239 5.83058C21.3212 5.74588 21.3959 5.65425 21.4624 5.55672C21.5705 5.40537 21.6425 5.23962 21.7362 5.08827C21.813 5.01527 21.8637 4.91904 21.8804 4.81441L21.9813 4.58378L22.147 4.38199C22.5018 3.92658 22.7727 3.41166 22.947 2.86132C23.0118 2.67213 23.0118 2.46675 22.947 2.27756C22.9319 2.10772 22.949 1.93658 22.9974 1.77309C23.0407 1.68661 23.1992 1.65056 23.2713 1.60011L23.7326 1.9821C23.866 2.13217 24.0276 2.2546 24.2082 2.34244C24.2082 2.45055 24.3235 2.55143 24.3307 2.66674C24.3379 2.78205 24.2587 2.8397 24.237 2.95501C24.2154 3.07032 24.3307 3.17123 24.3956 3.25771C24.466 3.35795 24.5174 3.47034 24.5469 3.58922C24.6872 3.87636 24.8588 4.14707 25.0586 4.39639C25.2088 4.6615 25.3956 4.90412 25.6136 5.11708L25.7721 5.24683V5.39816C25.837 5.50627 25.9667 5.5495 26.046 5.63598L26.1901 5.81616L26.3126 5.97471C26.4977 6.17498 26.7003 6.35829 26.918 6.52244C27.0762 6.64775 27.2063 6.80488 27.3 6.98367C27.3432 7.1206 27.5306 7.13503 27.5811 7.15665C27.6709 7.19972 27.7457 7.26879 27.7958 7.35488C27.8459 7.44098 27.869 7.54012 27.8621 7.6395C27.6347 7.94271 27.3654 8.21207 27.0622 8.43948C26.9083 8.5085 26.7405 8.54058 26.5721 8.53317C26.4207 8.53317 26.4135 8.36741 26.2622 8.36741C26.1174 8.37637 25.9725 8.35426 25.837 8.30255C25.767 8.30109 25.6992 8.27848 25.6424 8.23769L25.4694 8.02147C25.3902 7.92778 25.3109 7.84851 25.2244 7.76203C25.1379 7.67555 25.0658 7.62509 25.0803 7.45933C25.1027 7.35725 25.1027 7.25151 25.0803 7.14944C25.0315 7.04118 24.9882 6.93054 24.9505 6.81793C24.9238 6.67005 24.87 6.52834 24.792 6.39991C24.7055 6.2846 24.6046 6.30623 24.4965 6.22695C24.3884 6.14768 24.2442 5.80896 24.1722 5.60717C24.1015 5.29896 23.9976 4.99931 23.8623 4.7135C23.7985 4.58126 23.6918 4.47456 23.5596 4.41082C23.4154 4.35317 23.3722 4.41082 23.2569 4.54054C23.165 4.6723 23.0854 4.81221 23.0191 4.95853C22.9182 5.12429 22.8389 5.30447 22.7308 5.46302C22.5583 5.84496 22.338 6.20339 22.075 6.52965L21.8948 6.73864L21.7651 6.91162C21.6677 7.19738 21.5371 7.47069 21.3759 7.72598C21.2703 7.84837 21.1739 7.97846 21.0876 8.11516C21.0156 8.28143 20.9101 8.4311 20.7777 8.55479H20.6912L20.8282 8.69892L21.0155 8.89352L21.0804 8.98719L21.03 9.1962C20.8354 9.28268 20.6696 9.28268 20.5183 9.44844C20.4838 9.49402 20.4405 9.5322 20.391 9.56068C20.3415 9.58916 20.2867 9.60736 20.23 9.61421C20.1365 9.62168 20.0425 9.62168 19.9489 9.61421C19.7111 9.61421 19.4949 9.61421 19.2643 9.61421C19.1114 9.58448 18.9634 9.53352 18.8247 9.46285C18.4679 9.34927 18.0964 9.28857 17.722 9.28268C17.345 9.22771 16.963 9.21563 16.5833 9.24665L16.641 9.33313C16.7321 9.4352 16.8532 9.50583 16.9869 9.53492C16.9869 9.6214 16.9869 9.72231 16.9869 9.79438C16.891 9.78619 16.7945 9.78619 16.6986 9.79438C16.5617 9.79438 16.5184 9.7151 16.4103 9.67907C16.3022 9.64303 16.2085 9.67907 16.1149 9.67907C16.0212 9.67907 15.9851 9.46285 15.841 9.41961C15.9779 9.33313 16.2013 9.41962 16.3311 9.31872V9.23224H16.2302L15.9851 9.15296C15.7833 9.10971 15.5455 9.15296 15.3365 9.15296C15.1275 9.15296 14.4645 9.03044 14.6158 9.15296C14.6903 9.19639 14.7508 9.26012 14.7904 9.33669C14.8299 9.41326 14.8469 9.49953 14.8392 9.58537C14.7816 9.84482 14.7456 9.70068 14.7888 9.98175C14.8084 10.1255 14.7751 10.2715 14.6951 10.3925L14.342 10.3277L14.2915 10.4358L14.0969 10.5223V10.7529L14.2627 10.9042L14.4212 10.7745L14.4861 10.7313H14.587V10.9403C14.572 11.1001 14.5867 11.2614 14.6302 11.4159L14.7167 11.6177C14.7422 11.838 14.7422 12.0605 14.7167 12.2807C14.731 12.3691 14.731 12.4591 14.7167 12.5474C14.7167 12.6411 14.6446 12.6915 14.6446 12.7996C14.6446 13.1023 14.8392 13.5203 14.6086 13.7654C14.5005 13.8879 14.4429 14.0248 14.3348 14.1762C14.2267 14.3275 14.2987 14.2627 14.205 14.3563C14.078 14.4846 13.9578 14.6193 13.8447 14.7599C14.0184 14.8549 14.2055 14.923 14.3996 14.9617C14.6374 14.9617 14.6951 14.9617 14.8609 15.1563C14.9624 15.2469 15.0477 15.3541 15.1131 15.4734V15.6608L14.969 15.8482C14.7888 15.9995 14.8176 16.1653 14.5798 16.1797C14.4066 16.1797 14.2352 16.214 14.0753 16.2806C13.9046 16.3407 13.7404 16.418 13.5852 16.5112C13.5132 16.5616 13.3618 16.5112 13.2753 16.5112C13.1091 16.505 12.9495 16.4442 12.8213 16.3382C12.6411 16.2229 12.4898 16.1941 12.3096 16.0932C12.1637 16.0112 12.009 15.9459 11.8484 15.8986C11.4961 15.8205 11.135 15.7889 10.7745 15.8049C10.3672 15.7382 9.95489 15.7068 9.54217 15.7112H9.39083C9.29714 15.7473 9.23948 15.7833 9.1602 15.8193C9.05947 15.8589 8.95073 15.8737 8.8431 15.8626C8.72705 15.8659 8.6114 15.878 8.49716 15.8986C8.38905 15.8986 8.41068 15.7833 8.18726 15.7761H7.71882C7.71882 15.8842 7.98546 15.9563 7.99988 15.9779V16.1725C7.98905 16.2707 7.98905 16.3698 7.99988 16.468C7.99988 16.5472 7.99988 16.6193 7.99988 16.7707C7.99988 16.922 7.95664 17.0878 7.99988 17.2463C8.03415 17.3853 8.04633 17.5288 8.03593 17.6715C8.03855 17.8462 8.01917 18.0206 7.97826 18.1904C7.9459 18.3223 7.86966 18.4392 7.76206 18.5219L7.68277 18.5868H7.75485C7.9587 18.5708 8.16106 18.5395 8.36022 18.4931L8.66292 18.4499C8.74941 18.4499 8.87193 18.2985 9.13858 18.3129C9.29616 18.3582 9.45795 18.3872 9.62143 18.3994C9.74816 18.3906 9.87497 18.4155 9.98899 18.4715C10.4791 18.6733 10.3205 18.4715 10.5367 18.7093C10.7529 18.9471 11.034 19.2642 10.9475 19.5309C10.8431 19.722 10.7563 19.9223 10.6881 20.1291C10.6805 20.2575 10.6636 20.3851 10.6376 20.511C10.6003 20.7038 10.6003 20.902 10.6376 21.0948C10.6706 21.2242 10.6828 21.358 10.6737 21.4912C10.6737 21.8155 10.6737 21.8948 10.6737 22.0749C10.6607 22.2683 10.6367 22.4609 10.6016 22.6515C10.553 22.8396 10.5336 23.034 10.5439 23.228C10.5439 23.3361 10.6376 23.5956 10.5439 23.7037L10.3277 23.8406L10.0899 23.9992C9.95297 24.1145 9.85926 24.2514 9.71513 24.3523C9.57099 24.4532 9.41964 24.482 9.28271 24.5829C9.14578 24.6838 9.153 24.7271 8.95841 24.6262C8.81564 24.3276 8.74879 23.9983 8.76381 23.6677C8.76272 23.5595 8.79548 23.4536 8.8575 23.365C8.93178 23.1316 8.97303 22.8891 8.98003 22.6443V22.4353H9.08813C9.18182 22.4353 9.23948 22.4353 9.31875 22.4785L9.47731 22.6371L9.53495 22.5722L9.41964 22.3704L9.34037 22.1326C9.29713 22.0749 9.11695 22.0821 8.99444 22.0749C8.99444 21.7578 9.10974 21.6497 9.12415 21.2678C9.12415 21.1525 9.12415 21.1092 9.12415 20.9939C9.07511 20.6812 9.04385 20.366 9.03048 20.0498H8.87193C8.71172 19.8069 8.48366 19.6164 8.2161 19.5021C8.1152 19.7543 7.76206 19.6967 7.49541 19.7687C7.3357 19.797 7.17225 19.797 7.01254 19.7687C6.84455 19.7579 6.67605 19.7579 6.50807 19.7687C6.38136 19.751 6.2528 19.751 6.1261 19.7687C5.99638 19.7687 5.90267 19.8768 5.77295 19.9057C5.66588 19.9268 5.55572 19.9268 5.44865 19.9057C4.81672 19.9221 4.18624 19.975 3.56042 20.0642C3.30818 20.0642 3.04873 20.0642 2.79649 20.0642C2.68566 20.0737 2.5766 20.0979 2.47219 20.1363L2.31364 20.2228H1.98932L1.78031 20.1363C1.68009 20.097 1.58362 20.0487 1.49204 19.9921L1.21818 19.884H1.18215L1.038 19.6606L0.958739 19.5958V19.394V19.1778C1.05243 19.1778 1.0308 19.1778 1.11008 19.1417L1.31187 19.048C1.47763 19.012 1.65782 19.0913 1.82358 19.048C2.1427 19.026 2.46296 19.026 2.78209 19.048C3.09919 19.048 3.41629 19.048 3.72619 19.048C3.93815 19.0877 4.15565 19.0877 4.36761 19.048C4.47572 19.048 4.53335 18.9255 4.64146 18.9111C4.74956 18.8967 4.91533 18.9111 5.03785 18.9111C5.22867 18.9094 5.41905 18.8925 5.6072 18.8607C5.82076 18.8462 6.03505 18.8462 6.24861 18.8607C6.318 18.8693 6.38821 18.8693 6.45761 18.8607C6.40716 18.7742 6.45761 18.7165 6.45761 18.6084C6.45761 18.5003 6.4576 18.4499 6.37832 18.3562C6.29905 18.2625 6.19816 18.1976 6.20537 18.0319C6.2993 17.7277 6.35499 17.4129 6.37113 17.095C6.37113 16.922 6.37113 16.7274 6.37113 16.5544C6.38907 16.4277 6.38907 16.2992 6.37113 16.1725C6.35485 16.1199 6.326 16.0721 6.28707 16.0331C6.24814 15.9942 6.20031 15.9653 6.14772 15.9491H5.93871C5.7468 15.9635 5.55406 15.9635 5.36215 15.9491C5.12543 16.0043 4.88423 16.038 4.64146 16.05C4.60542 15.9347 4.33878 15.8986 4.23068 15.8914C4.12258 15.8842 4.0505 15.9779 3.92798 16.0716C3.80546 16.1653 3.80546 16.122 3.70457 16.1581C3.59914 16.1688 3.49289 16.1688 3.38746 16.1581C3.22718 16.1764 3.06828 16.2053 2.9118 16.2445C2.36181 16.3353 1.80314 16.3619 1.24701 16.3238H1.07405L0.973145 16.2229C0.886662 16.2229 0.785777 16.3454 0.692087 16.3743C0.598397 16.4031 0.360567 16.4391 0.194809 16.4608C0.079025 17.28 0.0140466 18.1055 0.000229994 18.9327C-0.00934091 20.887 0.279853 22.8313 0.857832 24.6983L1.36232 24.3812L2.36409 25.0298C2.36409 25.0298 2.12625 25.2244 2.23435 25.8297L2.31364 26.5504H1.80196C1.66135 26.2867 1.48423 26.044 1.27584 25.8297C2.46261 28.8708 4.40769 31.5577 6.92606 33.6348H7.0774C7.18057 33.642 7.28414 33.642 7.38731 33.6348L7.60351 33.5411C7.77647 33.5411 8.15843 33.5411 8.25212 33.3754V33.2096V32.9285C8.1224 32.3664 7.98548 32.3952 8.01431 32.2583C8.0364 32.1317 8.10599 32.0182 8.20889 31.9412C8.1152 31.9412 7.98548 31.9412 7.89899 31.8908C7.81251 31.8403 7.5891 31.8907 7.43055 31.8547C7.272 31.8187 7.16389 31.7322 7.04858 31.7106H6.82515C6.72425 31.7106 6.75308 31.7682 6.62336 31.7106L6.43599 31.5664C6.35784 31.5194 6.29131 31.4554 6.24139 31.379L6.11167 31.1628C6.05402 31.0908 6.0252 31.0403 5.96755 30.9538C5.91753 30.8781 5.8787 30.7956 5.85223 30.7088C5.85223 30.8097 5.60718 30.0746 5.70087 30.2043C5.57115 30.0169 5.52793 29.9665 5.58558 29.7359C5.61825 29.4575 5.6987 29.1869 5.8234 28.9359C5.97475 28.6909 6.10448 28.3954 6.39275 28.2729L6.68102 28.1936V28.0062L6.83236 27.927C6.98371 27.8693 7.09902 27.7684 7.24316 27.7035C7.53786 27.598 7.84192 27.5208 8.15124 27.4729C8.41033 27.3791 8.68293 27.328 8.95841 27.3216C9.17462 27.3216 9.19622 27.4441 9.34757 27.545C9.49891 27.6459 9.63585 27.6098 9.7872 27.6459C9.93854 27.6819 10.2052 27.7828 10.4142 27.8549C10.5125 27.8991 10.6066 27.9522 10.6953 28.0134C10.7884 28.0661 10.8755 28.1289 10.9547 28.2008C11.062 28.277 11.1568 28.3694 11.2358 28.4747C11.3165 28.639 11.3887 28.8074 11.452 28.9792V29.217C11.4595 29.337 11.4595 29.4573 11.452 29.5773C11.4727 29.699 11.4727 29.8232 11.452 29.9449C11.452 30.1034 11.3727 30.0674 11.2718 30.1683C11.1709 30.2692 11.1205 30.5214 11.0196 30.6944C10.9246 30.9209 10.7732 31.1194 10.58 31.2709C10.4791 31.3214 10.3854 31.3646 10.2773 31.4295C10.1692 31.4944 10.0467 31.5592 9.93135 31.6097C9.79218 31.6754 9.65736 31.7501 9.52774 31.8331L9.39083 31.9196L9.33316 31.9556L9.13858 32.0493V32.179L9.31154 32.352C9.46289 32.6907 9.31155 32.9862 9.39083 33.0727C9.4701 33.1592 9.39081 33.5051 9.4845 33.5051C9.57819 33.5051 9.41964 33.3826 9.53495 33.3393C9.65026 33.2961 10.2556 33.2456 10.4574 33.2024C10.8834 33.0774 11.3166 32.9787 11.7547 32.9069C11.8891 32.8615 12.0314 32.8444 12.1727 32.8565C12.3384 32.8565 12.4826 32.9934 12.6483 33.0222C12.7441 33.0332 12.8408 33.0332 12.9366 33.0222V32.979C12.7853 32.6979 12.6483 32.633 12.5835 32.4096C12.555 32.2127 12.5773 32.0118 12.6483 31.8259C12.7925 31.7682 12.9366 31.6889 13.0735 31.6241C13.0735 31.4439 13.0735 31.2205 13.0735 31.0331C13.2105 31.0331 13.3042 31.0331 13.4483 31.0331C13.4483 31.2061 13.2898 31.379 13.2609 31.5592C13.2463 31.7992 13.2463 32.0399 13.2609 32.2799C13.22 32.4769 13.1959 32.677 13.1889 32.8781V32.979C13.2432 32.969 13.299 32.9709 13.3525 32.9846C13.406 32.9983 13.4559 33.0234 13.4987 33.0583C13.5625 33.1094 13.6227 33.1648 13.6789 33.224C13.787 33.3177 13.8663 33.4258 13.9816 33.5267C14.0969 33.6276 14.0537 33.5772 14.1978 33.5627C14.2639 33.5447 14.3336 33.5447 14.3996 33.5627C14.2987 33.3033 14.1546 33.3465 13.8735 33.2312C13.8735 33.1015 13.7942 32.9934 13.7942 32.8637C13.7942 32.7339 13.8375 32.7412 13.8807 32.6403C13.9801 32.3305 13.9975 32.0002 13.9312 31.6817C13.8781 31.314 13.8976 30.9393 13.9888 30.5791C14.0444 30.4472 14.0595 30.3016 14.0321 30.1611C13.985 30.0196 13.9726 29.8688 13.996 29.7215C14.0212 29.453 14.0212 29.1828 13.996 28.9143C13.996 28.4963 13.996 28.0639 13.996 27.6459C13.996 27.3504 13.996 27.0405 14.0537 26.7378C14.0751 26.5941 14.0577 26.4473 14.0032 26.3126C13.9096 26.0531 14.0032 26.0459 14.1834 25.8946C13.9672 25.7505 14.0465 25.5847 13.9528 25.3757C13.878 25.2052 13.8388 25.0213 13.8375 24.8352C13.8375 24.6262 13.7654 24.4244 13.7654 24.2442C13.7654 24.064 13.7654 24.1721 13.7294 24.0857C13.5776 23.7899 13.3485 23.5408 13.0663 23.365C12.9871 23.365 13.0159 23.2929 13.0087 23.2208V23.1632L12.8357 23.3506C12.6896 23.4858 12.5634 23.6411 12.461 23.8118L12.2664 24.0496C12.1523 24.1334 12.0318 24.2081 11.906 24.2731C11.6599 24.4812 11.3761 24.6402 11.07 24.7415C10.9619 24.7415 10.8466 24.655 10.7457 24.6406C10.6448 24.6262 10.5223 24.7415 10.4502 24.6406L10.3637 24.3523C10.3637 24.3523 10.4574 24.2226 10.5439 24.1289C10.6408 23.9968 10.7467 23.8716 10.861 23.7542C10.9297 23.6151 11.0067 23.4803 11.0916 23.3506C11.1963 23.207 11.3094 23.0699 11.4304 22.9398C11.5916 22.7462 11.7701 22.5677 11.9637 22.4065C12.0646 22.3056 12.1943 22.2407 12.2375 22.1038C12.2902 21.9697 12.3685 21.8473 12.4682 21.7434C12.8009 21.3842 13.116 21.009 13.4123 20.6191C13.4695 20.5232 13.5455 20.4399 13.6357 20.3741L13.7798 20.1795C13.8303 20.0931 13.8951 20.0138 13.9456 19.9345C14.0275 19.7827 14.132 19.6442 14.2555 19.5237C14.367 19.4159 14.4617 19.292 14.5365 19.1561L14.6086 18.9544V18.7309C14.6362 18.612 14.6579 18.4917 14.6735 18.3706C14.7053 18.2648 14.7053 18.152 14.6735 18.0463C14.6605 17.9696 14.6388 17.8946 14.6086 17.8229C14.6086 17.7508 14.7167 17.7292 14.6086 17.6859C14.5005 17.6427 14.4573 17.7652 14.3203 17.758H13.9312C13.8023 17.7428 13.6747 17.7187 13.5492 17.6859C13.3499 17.6756 13.1503 17.6756 12.951 17.6859C12.7452 17.6561 12.5352 17.694 12.3529 17.794L12.2087 17.7292C12.1326 17.585 12.0407 17.4496 11.9349 17.3256L11.834 17.2247L11.7403 17.1815V17.1382L11.6754 16.7274L11.7691 16.5617C11.8772 16.504 12.1367 16.677 12.252 16.6842C12.4373 16.7188 12.6255 16.7357 12.8141 16.7346C12.8972 16.715 12.9814 16.7005 13.0663 16.6914L13.1672 16.7274L13.2753 16.7707C13.3906 16.7707 13.4339 16.677 13.5132 16.6337C13.6154 16.6002 13.7228 16.5855 13.8303 16.5905C14.0416 16.551 14.2569 16.5365 14.4717 16.5472C14.5726 16.5472 14.6879 16.5977 14.8032 16.5977C14.9185 16.5977 14.8969 16.5256 14.9978 16.4968C15.1578 16.4717 15.3207 16.4717 15.4806 16.4968C15.686 16.5293 15.8951 16.5293 16.1005 16.4968C16.3095 16.4463 16.504 16.3166 16.713 16.2445C16.922 16.1725 16.9725 16.0788 17.1238 16.086C17.2762 16.0795 17.4268 16.0504 17.5706 15.9995C17.7652 15.9635 17.8589 16.086 18.0031 16.1364C18.1472 16.1869 18.5436 16.3238 18.3346 16.259C18.4211 16.295 18.4427 16.3815 18.5364 16.3815C18.6301 16.3815 18.6229 16.3815 18.7742 16.3815L19.0409 16.4752L19.0769 16.6553V16.7923C19.0769 16.8788 19.0769 16.8499 19.0409 16.922C18.9806 17.0233 18.9345 17.1325 18.9039 17.2463C18.8588 17.3836 18.7734 17.5041 18.6589 17.5922L18.5364 17.758C18.4715 17.8229 18.3058 17.794 18.2121 17.758C17.9531 17.7364 17.6927 17.7364 17.4337 17.758L17.2319 17.8012L17.0806 17.8445C16.9869 17.8445 16.8788 17.8445 16.7779 17.8085C16.6721 17.7765 16.5635 17.7548 16.4536 17.7436H16.1797C16.1797 17.585 15.9563 17.6499 15.8698 17.6859C15.7833 17.722 15.6176 17.6859 15.4879 17.7364H15.423L15.5816 17.8373C15.7041 17.9166 15.7257 18.0679 15.805 18.176C15.8842 18.2841 16.014 18.3706 16.0356 18.5291C16.0572 18.6877 15.9059 18.9111 15.9131 18.9832L16.0284 19.1057C16.1149 19.185 16.1076 19.221 16.1509 19.3435C16.1941 19.466 16.2014 19.4805 16.2374 19.5886C16.263 19.6699 16.2943 19.7494 16.3311 19.8264C16.398 19.914 16.456 20.0082 16.504 20.1075C16.5885 20.3189 16.7161 20.5103 16.8788 20.6696C17.095 20.9002 17.1671 21.138 17.3761 21.3903C17.4254 21.4451 17.4594 21.5119 17.4746 21.584C17.4898 21.6562 17.4856 21.7311 17.4625 21.8011C17.4625 21.9596 17.5635 21.7146 17.6932 21.8443L17.8517 21.9885L18.0247 22.1038L18.1112 22.1831C18.2015 22.2422 18.2798 22.318 18.3418 22.4065C18.4139 22.4857 18.4715 22.5794 18.5364 22.6659C18.6012 22.7524 18.5868 22.7092 18.6661 22.7452C18.7454 22.7812 18.8102 22.8389 18.8967 22.9037C18.9832 22.9686 19.0697 22.9902 19.0913 23.1272C19.1129 23.2641 19.149 23.2353 19.0913 23.3001L18.9616 23.4947C18.9111 23.6028 18.7238 23.646 18.6445 23.7253C18.4643 23.9026 18.2406 24.0294 17.9959 24.0929C17.9002 24.0901 17.8055 24.0731 17.7148 24.0424C17.6146 24.0353 17.519 23.9976 17.4409 23.9343C17.3328 23.8334 17.2463 23.8622 17.1238 23.8118C16.8716 23.7253 16.8139 23.4154 16.677 23.228C16.5401 23.0407 16.5185 23.0911 16.504 22.9974C16.4896 22.9037 16.5977 22.8245 16.5617 22.7091C16.5122 22.5958 16.4569 22.4852 16.3959 22.3776L16.2086 22.2407L16.1293 22.1831C16.0242 22.0653 15.9543 21.9205 15.9275 21.765C15.9275 21.6353 15.7834 21.5056 15.7401 21.3615C15.6993 21.2594 15.6703 21.153 15.6536 21.0443C15.5904 20.8092 15.5565 20.5671 15.5527 20.3237C15.5527 20.1795 15.4158 20.266 15.4014 20.1795L15.3221 20.0066C15.1635 19.8912 14.832 20.5903 14.7744 20.6912C14.7167 20.7921 14.5005 20.9579 14.3996 21.1453C14.2909 21.3503 14.1578 21.5415 14.0032 21.7146C13.9168 21.8083 13.8591 21.9236 13.7798 22.0173C13.7038 22.0831 13.6425 22.1641 13.5997 22.2551C13.5276 22.4064 13.3979 22.4713 13.3042 22.6083C13.2417 22.7282 13.198 22.857 13.1745 22.9902V23.0335C13.2443 22.975 13.3292 22.9376 13.4195 22.9254C13.5405 22.9103 13.663 22.9384 13.7654 23.0046C13.8695 23.0553 13.9781 23.0963 14.0897 23.1272C14.3636 23.1992 14.5942 23.3722 14.8753 23.3289C14.9468 23.3118 15.0215 23.312 15.0929 23.3295C15.1644 23.3471 15.2306 23.3815 15.2861 23.4298L15.4302 23.574C15.6464 23.7686 15.4302 23.7469 15.6392 23.9127C15.6629 24.1541 15.6459 24.3977 15.5887 24.6334C15.5887 24.7559 15.5455 24.7775 15.5383 24.9C15.5383 25.2172 15.5383 25.5342 15.5383 25.8586C15.5254 26.1428 15.557 26.4273 15.632 26.7018C15.6633 26.9916 15.6288 27.2847 15.5311 27.5594C15.5238 27.6914 15.5238 27.8237 15.5311 27.9558C15.498 28.1071 15.4858 28.2623 15.4951 28.417C15.5503 28.5665 15.6178 28.7111 15.6969 28.8494C15.8187 28.8676 15.9426 28.8676 16.0644 28.8494L16.2806 28.7341C16.4824 28.6621 16.5977 28.4819 16.8067 28.4747L17.304 28.4386C17.4986 28.4386 17.6067 28.5684 17.7797 28.6044C17.9526 28.6404 18.0175 28.5323 18.2049 28.6044C18.3922 28.6765 18.6517 28.7341 18.8319 28.835C19.012 28.9359 18.94 29.0584 18.9472 29.2314C18.9544 29.4044 19.0913 29.5845 19.0409 29.6998C18.9904 29.8152 18.6877 30.1899 18.4355 30.1395L18.2265 30.0818C18.0823 30.0458 17.9238 30.0818 17.7869 30.017C17.6331 29.9747 17.4766 29.9434 17.3184 29.9233L17.1238 29.9593C17.0445 29.9593 16.9292 29.9593 16.8428 29.9593C16.7276 29.9665 16.612 29.9665 16.4968 29.9593C16.2537 29.9419 16.0126 29.9033 15.7761 29.844L15.7257 30.0025L15.5455 29.9233L15.3005 29.88L15.4446 29.5701H15.0843C15.0338 29.6782 14.9978 29.671 14.8897 29.6998C14.7816 29.7287 14.7816 29.8152 14.8897 29.8944V30.0674C14.8471 30.0884 14.8002 30.0993 14.7527 30.0993C14.7053 30.0993 14.6584 30.0884 14.6158 30.0674C14.6165 30.1347 14.6316 30.2011 14.6602 30.262C14.6888 30.323 14.7302 30.377 14.7816 30.4205L14.8537 30.3485C14.9028 30.2983 14.9654 30.2633 15.0338 30.2476L14.9473 30.0674C15.1563 30.0674 15.4302 29.9737 15.6104 30.0674C15.6437 30.214 15.6606 30.3639 15.6608 30.5142C15.6608 30.68 15.4518 30.7665 15.4158 30.925C15.3798 31.0836 15.3725 31.1052 15.4158 31.1556C15.4735 31.4362 15.4735 31.7255 15.4158 32.006C15.4158 32.179 15.4662 32.5682 15.3293 32.6907C15.4734 32.7484 15.5095 32.7267 15.5239 32.8853C15.5334 33.0782 15.5214 33.2716 15.4879 33.4619C15.4879 33.7645 15.5527 34.0672 15.5455 34.3699C15.5383 34.6726 15.5455 34.7735 15.5455 34.9753C15.5455 35.1771 15.4878 35.2131 15.4734 35.3573C15.4711 35.5645 15.4831 35.7715 15.5095 35.9771C15.5394 36.168 15.5586 36.3605 15.5671 36.5536C15.5459 36.7159 15.4997 36.8739 15.4302 37.0221C15.3942 37.1158 15.3077 37.159 15.2716 37.2311C15.2356 37.3031 15.2284 37.4761 15.1924 37.5986C14.8392 37.5265 14.4717 37.4401 14.1546 37.3536V37.3103C14.1472 37.2323 14.1327 37.1551 14.1113 37.0797V36.7698C14.0753 36.6978 14.0393 36.7698 13.996 36.6617C13.9483 36.5202 13.9263 36.3713 13.9312 36.2221C13.9455 35.9821 13.9455 35.7414 13.9312 35.5014V35.3501C13.9476 35.2757 13.9717 35.2032 14.0032 35.1339C14.0609 35.0113 14.0032 34.8023 14.0032 34.6582C14.0032 34.5141 14.0537 34.3195 13.9456 34.2762C13.8375 34.233 13.7366 34.4996 13.6357 34.5141C13.525 34.4997 13.4162 34.4731 13.3114 34.4348L13.0808 34.3987C12.6893 34.2998 12.2881 34.2442 11.8844 34.233C11.7042 34.233 11.5529 34.305 11.3799 34.3267C11.2532 34.3446 11.1246 34.3446 10.998 34.3267C10.847 34.3412 10.6949 34.3412 10.5439 34.3267C10.4358 34.3267 10.443 34.1825 10.371 34.1033C10.2701 34.1609 10.371 34.233 10.2773 34.305L9.80882 34.3123C9.49334 34.384 9.16579 34.384 8.85031 34.3123C8.70654 34.272 8.55445 34.272 8.41068 34.3123C8.27375 34.3555 8.1224 34.3123 7.97826 34.3699H7.89899C10.5504 36.3015 13.6582 37.511 16.9177 37.8799C20.1773 38.2488 23.4768 37.7645 26.4928 36.4743C26.4862 36.3519 26.4862 36.2292 26.4928 36.1068C26.4928 35.8906 26.4928 35.6744 26.4928 35.4654C26.4928 35.2564 26.4424 35.1987 26.4496 34.9609C26.4496 34.5717 26.4496 34.3123 26.4856 34.06C26.5216 33.8078 26.5288 33.6708 26.5721 33.4979C26.5938 33.1993 26.5793 32.8993 26.5289 32.6042C26.5289 32.3376 26.5289 32.0709 26.5289 31.8115C26.5073 31.5068 26.5073 31.2009 26.5289 30.8962C26.5289 30.8962 26.846 30.8169 26.7523 30.7304C26.5124 30.7111 26.2714 30.7111 26.0316 30.7304V30.853C25.9232 30.8509 25.8171 30.8837 25.7289 30.9466L25.5847 31.0836C25.455 31.0836 25.3469 30.9899 25.2316 30.9682C25.098 30.9612 24.9641 30.9758 24.8352 31.0115C24.7611 31.0212 24.686 31.0212 24.6118 31.0115C24.4605 31.0115 24.3668 31.1268 24.2154 31.1124C24.0912 31.0924 23.9745 31.0402 23.8767 30.9611L23.6317 30.7953C23.5574 30.7251 23.5049 30.635 23.4803 30.5359C23.4619 30.478 23.4325 30.4241 23.3938 30.3773C23.329 30.2836 23.4443 30.1178 23.4515 30.0097C23.5466 30.0164 23.6422 30.0042 23.7326 29.9737C23.8551 29.9233 23.8911 29.8296 24.0352 29.8296C24.1794 29.8296 24.4965 29.8296 24.7559 29.8728C24.9356 29.8616 25.1141 29.8351 25.2893 29.7935C25.3836 29.7833 25.4759 29.759 25.5631 29.7215C25.7209 29.6998 25.8809 29.6998 26.0388 29.7215C26.1108 29.7215 26.5288 29.8944 26.3703 29.6494C26.3198 29.5629 26.5288 29.39 26.5216 29.2963L26.464 29.2026V29.1089C26.4244 28.8027 26.4244 28.4926 26.464 28.1864H26.5865C26.4712 28.0927 26.5865 27.9342 26.4568 27.8116C26.3271 27.6891 26.3199 27.7468 26.3054 27.5882C26.3126 27.4851 26.3126 27.3815 26.3054 27.2783C26.3054 27.1774 26.3054 27.1054 26.3054 26.99C26.294 26.8936 26.2632 26.8005 26.2149 26.7163C26.1666 26.6321 26.1018 26.5585 26.0244 26.5L25.8298 26.2982L25.6928 26.082L25.5919 25.9018L25.5055 25.7793L25.3685 25.664C25.3791 25.607 25.396 25.5514 25.419 25.4982L25.4982 25.3685L25.6136 25.2172C25.7386 25.2469 25.8671 25.2591 25.9955 25.2532C26.1685 25.2532 26.2694 25.4694 26.4279 25.5487C26.5865 25.6279 26.7018 25.6496 26.7883 25.8153L26.8676 25.7072H27.0333C27.2236 25.7327 27.4086 25.7887 27.5811 25.873C27.8189 25.9739 27.6819 26.0027 27.7612 26.1829L27.8549 26.3198C27.927 26.4784 27.8117 26.536 27.7973 26.7018C27.7282 26.6887 27.6573 26.6887 27.5883 26.7018L27.5522 26.8315L27.2423 26.6946L26.9901 26.8315C26.9215 26.9668 26.8683 27.1095 26.8315 27.2567L26.9757 27.4441L27.2495 27.6819C27.3793 27.7972 27.3432 27.5017 27.3648 27.4225C27.4296 27.3006 27.5149 27.1909 27.6171 27.0981C27.7612 26.9684 27.7324 27.0405 27.8117 27.1991C27.891 27.3576 27.9126 27.3 27.9053 27.4297C27.8981 27.5594 27.7901 27.7756 27.7684 27.9918H27.4801C27.3792 27.9918 27.3576 27.9918 27.2567 28.0278L27.1486 28.2513C27.1486 28.3666 27.2712 28.4963 27.1991 28.5972C27.127 28.6981 27.1054 28.5972 27.0766 28.554C27.0477 28.5107 27.0766 28.4314 26.8892 28.3666L26.7234 28.6837C26.7234 28.799 26.8676 28.8566 26.9108 28.9719C26.9552 29.1226 27.0259 29.2641 27.1198 29.39C27.1819 29.4085 27.2484 29.4066 27.3094 29.3845C27.3704 29.3625 27.4226 29.3214 27.4585 29.2674L27.7324 29.1665H27.8261C27.8261 29.3899 27.7468 29.5989 27.8909 29.7791C28.0351 29.9593 27.9558 30.2476 27.9486 30.4998L27.8045 30.5935V30.889C27.8045 31.1845 27.6675 31.4727 27.6964 31.7682C27.7108 31.977 27.7108 32.1865 27.6964 32.3952C27.6964 32.6186 27.6964 32.7916 27.6964 33.0078C27.6964 33.224 27.7396 33.4114 27.7396 33.6132C27.7541 33.7208 27.7541 33.8299 27.7396 33.9375C27.7093 34.0455 27.6923 34.1569 27.6892 34.269C27.6696 34.439 27.6696 34.6107 27.6892 34.7807C27.7146 34.8871 27.7291 34.9957 27.7324 35.105C27.7852 35.2518 27.7852 35.4123 27.7324 35.5591C27.6891 35.6528 27.6315 35.696 27.5811 35.8185C27.5306 35.941 27.581 35.9627 27.5018 36.0275C27.9846 35.7897 28.4603 35.523 28.9431 35.242C28.9431 35.0906 28.9431 34.9465 28.9431 34.7951C28.9705 34.575 28.9705 34.3523 28.9431 34.1321V33.8222C28.9431 33.7141 28.9792 32.4601 28.9431 32.3376C28.9071 32.2151 29.1017 31.307 28.9431 31.2133C28.7846 31.1196 28.8639 30.8169 28.8783 30.7016C28.9029 30.5479 28.8829 30.3903 28.8206 30.2476C28.7847 29.8231 28.7847 29.3964 28.8206 28.9719C28.8747 28.7836 28.8747 28.5838 28.8206 28.3954C28.8206 28.2585 28.7774 27.9558 28.763 27.8188C28.7558 27.6988 28.7558 27.5785 28.763 27.4585V27.2351V26.9036L28.6909 26.6729L28.6333 26.536L28.7197 26.327V26.1469C28.7197 26.0243 28.7918 25.9378 28.9431 26.0027V25.8442L28.8422 25.7865L28.6837 25.6568C28.6261 25.5775 28.7774 25.4261 28.6837 25.3901C28.59 25.3541 28.4819 25.4334 28.4026 25.3901C28.3234 25.3469 28.2729 25.2388 28.1936 25.1739L28.0711 25.0586C27.934 24.9104 27.7791 24.7796 27.6099 24.6694C27.6099 24.5397 27.4874 24.3811 27.5162 24.2658L27.5738 24.2226L27.6243 24.1794L27.7252 24.1001L27.7973 24.0496H27.9486L28.0783 24.0929L28.2729 24.1721L28.3882 24.2442L28.5468 24.3163L28.8567 24.3595C28.9574 24.3668 29.0586 24.3668 29.1593 24.3595C29.2386 24.3595 29.3323 24.3595 29.4116 24.3595C29.5839 24.3917 29.7437 24.4717 29.8729 24.5902C29.8242 24.4985 29.7855 24.4018 29.7575 24.3019V24.1217L29.8296 23.9992L29.9089 23.6532L29.8296 23.5163V23.4298C29.7864 23.4298 29.7359 23.4298 29.6855 23.3145L29.7863 23.156L29.5774 23.2713C29.581 23.1894 29.5583 23.1086 29.5125 23.0407L29.6206 22.7884C29.6977 22.8811 29.7968 22.953 29.9089 22.9974V22.9037C29.9659 22.5836 30.0994 22.2819 30.298 22.0245C30.3649 21.8634 30.4686 21.7203 30.6007 21.6065C30.7521 21.4984 30.9539 21.4696 31.098 21.347C31.2421 21.2245 31.2349 21.1308 31.3214 21.0443C31.3721 20.9989 31.4314 20.964 31.4957 20.9417C31.5601 20.9194 31.6282 20.9102 31.6962 20.9146C31.9917 20.9146 32.28 20.9146 32.5755 20.8642C32.8681 20.8425 33.162 20.8425 33.4547 20.8642C33.9205 20.9497 34.3803 21.0653 34.8312 21.2101C34.934 21.2539 35.02 21.3297 35.0762 21.4263C35.127 21.5128 35.168 21.6047 35.1987 21.7002C35.1987 21.7795 35.3933 21.8804 35.4078 21.974L35.4942 21.9092C35.4352 21.8053 35.3846 21.6968 35.3429 21.5849V21.3903C35.353 21.2945 35.353 21.1978 35.3429 21.102C35.3283 20.9125 35.3283 20.7222 35.3429 20.5327C35.3429 20.3597 35.4582 20.2876 35.4294 20.1363C35.4071 19.9979 35.3926 19.8583 35.3861 19.7183C35.3861 19.4588 35.3357 19.221 35.3429 18.9976C35.3359 18.8592 35.2991 18.724 35.2348 18.6012C35.1844 18.4643 35.2348 18.3922 35.0762 18.3706C34.959 18.3561 34.8404 18.3561 34.7231 18.3706C34.6078 18.3706 34.5069 18.4787 34.3916 18.5147C34.0861 18.6085 33.7758 18.6855 33.4619 18.7453C33.2961 18.7453 33.2817 18.7453 33.1448 18.6516C33.0153 18.5798 32.8668 18.5496 32.7196 18.5652C32.5718 18.5808 32.4266 18.6147 32.2872 18.6661C32.2316 18.6909 32.1714 18.7038 32.1106 18.7038C32.0497 18.7038 31.9896 18.6909 31.934 18.6661C31.8118 18.6299 31.6935 18.5816 31.5809 18.5219L31.4944 18.3634C31.444 18.2841 31.4223 18.0463 31.307 18.0463V17.8445L31.7394 17.8012C31.898 17.8012 32.0565 17.7508 32.2079 17.7364C32.3304 17.744 32.4512 17.7055 32.5466 17.6283C32.5737 17.6012 32.6066 17.5806 32.6428 17.5681C32.679 17.5556 32.7176 17.5516 32.7556 17.5562C32.8602 17.5531 32.9641 17.5386 33.0655 17.513C33.3253 17.4145 33.6024 17.3704 33.8799 17.3833C34.1391 17.3978 34.399 17.3978 34.6582 17.3833C34.8744 17.3833 35.0041 17.5202 35.1915 17.6139L35.3357 17.513C35.3357 17.3905 35.278 17.4049 35.2492 17.3328C35.2204 17.2607 35.2492 17.2103 35.2492 17.1166C35.2492 17.0229 35.3141 16.8355 35.3429 16.6914C35.3592 16.6551 35.3676 16.6158 35.3676 16.5761C35.3676 16.5363 35.3592 16.497 35.3429 16.4608L35.2636 16.259C35.2636 16.1148 35.2636 15.9851 35.2204 15.8482C35.2058 15.7237 35.2058 15.5979 35.2204 15.4734C35.0979 15.4734 35.0402 15.5671 34.9393 15.6176C34.8384 15.668 34.9033 15.7545 34.7159 15.8121C34.3527 15.9672 33.9645 16.0551 33.57 16.0716C33.4308 16.0608 33.2911 16.0608 33.152 16.0716C33.0369 16.0801 32.9217 16.055 32.8205 15.9995L32.7052 15.9347H32.4529C32.2905 15.9599 32.1252 15.9599 31.9628 15.9347C31.7755 15.8914 31.3142 15.5743 31.3431 15.9923C31.4113 16.0394 31.462 16.1079 31.4872 16.1869V16.3382L31.444 16.4752C31.444 16.5761 31.4872 16.6625 31.444 16.7634C31.3719 17.0445 31.1413 17.2391 31.1124 17.5274C31.1124 17.6427 31.0692 17.8012 31.0692 17.8949C31.0692 17.9886 31.1196 18.0102 31.0692 18.14C31.0187 18.2697 30.9755 18.2913 30.9323 18.3634C30.9095 18.4232 30.8748 18.4777 30.8302 18.5236C30.7855 18.5694 30.732 18.6057 30.6728 18.63C30.5143 18.7093 30.3269 18.7093 30.1611 18.8102C29.9954 18.9111 29.8512 19.048 29.7071 19.1345C29.6578 19.1657 29.6045 19.19 29.5485 19.2066C29.3035 19.3219 29.0008 19.3651 28.763 19.4949C28.5251 19.6246 28.3234 19.8624 27.9919 19.7975C27.7756 19.7471 27.5883 19.7976 27.372 19.7615C27.2058 19.7281 27.047 19.6646 26.9036 19.5741C26.8027 19.4949 26.637 19.466 26.5505 19.3651C26.464 19.2643 26.4279 19.1561 26.3342 19.0552C26.2406 18.9543 25.9811 18.6733 25.7865 18.4931L25.6136 18.2264C25.5323 18.1107 25.4577 17.9903 25.3901 17.8661C25.3138 17.7878 25.2439 17.7034 25.1811 17.6139L25.0875 17.376C25.0082 17.2031 24.9217 17.2679 24.9722 17.0301C25.0158 16.8031 25.0885 16.5827 25.1884 16.3743C25.2748 16.1941 25.2316 16.0788 25.3974 15.9202C25.5084 15.8239 25.5991 15.7062 25.664 15.5743C25.6794 15.4779 25.706 15.3835 25.7433 15.2932C25.7433 15.214 25.8298 15.214 25.873 15.1635C25.9403 15.0906 26.0261 15.0373 26.1213 15.0094C26.2165 14.9815 26.3175 14.98 26.4135 15.005C26.5577 14.9401 26.2838 14.9401 26.3271 14.832L26.4135 14.7455L26.5072 14.6302C26.709 14.6302 27.0189 14.5509 27.2279 14.5365C27.4771 14.4949 27.7195 14.4197 27.9486 14.3131L28.208 14.2122C28.3234 14.2122 28.381 14.2987 28.4819 14.3275C28.608 14.3527 28.7378 14.3527 28.8639 14.3275C29.156 14.334 29.4416 14.4159 29.6927 14.5653L30.0314 14.7455L30.2332 14.8825C30.3557 14.9545 30.5071 15.0194 30.6296 15.0914C30.7521 15.1635 30.8602 15.3293 30.9899 15.423C31.0427 15.4541 31.0884 15.4958 31.1244 15.5454C31.1603 15.595 31.1857 15.6514 31.1989 15.7112C31.3214 15.7473 31.2782 15.1851 31.3791 15.1851C31.4719 15.2036 31.5674 15.2036 31.6602 15.1851C31.8084 15.1417 31.966 15.1417 32.1142 15.1851C32.2767 15.1791 32.4372 15.1474 32.5898 15.0914L32.7917 15.0482C32.8901 15.0133 32.9914 14.9868 33.0943 14.9689C33.222 14.9362 33.3521 14.9145 33.4835 14.9041C33.6132 14.9041 33.743 14.9041 33.8727 14.8536L34.0817 14.7599C34.2438 14.7311 34.4097 14.7311 34.5717 14.7599C34.7612 14.7455 34.9516 14.7455 35.1411 14.7599C35.2634 14.767 35.3858 14.7499 35.5015 14.7095C35.6384 14.8032 35.6888 14.9185 35.8113 14.832C35.9339 14.7455 35.9483 14.7095 36.0348 14.7095H36.3662C36.3529 14.6141 36.3312 14.52 36.3014 14.4284C36.2077 14.2194 36.0636 14.3131 35.7104 14.3707C35.6208 14.4133 35.5382 14.4692 35.4654 14.5365C35.3573 14.4717 35.3717 14.5005 35.3645 14.4212V14.2699C35.3827 14.1649 35.3827 14.0577 35.3645 13.9528V13.7798L35.415 13.5996L35.6167 13.5564C35.5807 13.3978 35.2852 13.196 35.1627 13.0951C35.0238 12.9265 34.923 12.7298 34.8672 12.5186C34.8672 12.4465 34.8672 12.4393 34.7736 12.36C34.6895 12.3419 34.6106 12.3049 34.5429 12.2519C34.4427 12.1446 34.3316 12.0479 34.2114 11.9636C34.1321 11.8123 34.2114 11.7402 34.2691 11.6538C34.4636 11.4664 34.4204 11.5673 34.5717 11.524C34.7231 11.4808 34.7807 11.452 34.9249 11.524C35.0359 11.5906 35.1579 11.637 35.2852 11.661C35.4305 11.6967 35.5708 11.7499 35.7032 11.8195C35.8545 11.8815 36.0014 11.9538 36.1428 12.0357C36.2509 12.1078 36.3519 12.0357 36.4816 12.0357C36.6113 12.0357 36.6978 12.1006 36.8059 12.288L36.7338 12.3024ZM8.5332 28.0422C8.5332 28.1431 8.67733 28.1936 8.65571 28.3017L8.41068 28.381L8.27374 28.5323H8.09357C7.94436 28.5788 7.78859 28.6007 7.63234 28.5972C7.47379 28.5972 7.42332 28.5251 7.30081 28.6332L7.22154 28.7485L7.05578 28.799C6.97014 28.8769 6.89935 28.9697 6.84679 29.0729C6.78223 29.1857 6.7337 29.307 6.70264 29.4332C6.67339 29.5313 6.66121 29.6337 6.66662 29.7359C6.67119 29.8243 6.69582 29.9106 6.73867 29.9881L6.91165 30.1899C7.02696 30.3196 6.96209 30.5214 7.10623 30.6223C7.40524 30.8343 7.73608 30.9973 8.08636 31.1052C8.25047 31.1382 8.41952 31.1382 8.58364 31.1052C8.67822 31.1017 8.7723 31.0896 8.86472 31.0692L9.00165 31.0115C9.15157 30.9212 9.28752 30.8095 9.40523 30.68C9.52347 30.5932 9.63219 30.4942 9.72955 30.3845C9.79617 30.2998 9.84294 30.2013 9.86646 30.0962C9.87393 30.0261 9.89345 29.9579 9.92413 29.8944C9.97458 29.7935 10.0611 29.8296 10.0466 29.707C10.0322 29.5845 10.0466 29.6062 10.0466 29.5413C9.9025 29.2674 9.96737 28.9287 9.7872 28.6765L9.53495 28.5611C9.53495 28.4602 9.41964 28.4891 9.33316 28.4819C9.25808 28.4766 9.1847 28.457 9.11696 28.4242L8.85031 28.3594L8.78543 28.2585L8.71338 28.0999L8.5332 28.0422ZM30.9683 23.3361L31.0404 23.3722C31.0404 23.4659 31.0404 23.5812 31.0404 23.6244C31.0404 23.6677 31.0404 23.7397 31.0908 23.819C31.1413 23.8983 31.1485 23.9559 31.026 24.064C31.026 24.064 31.0259 24.3019 31.098 24.2226C31.1701 24.1433 31.098 24.1433 31.1485 24.165C31.3503 24.2947 31.6457 24.6334 31.7322 24.5902C31.8187 24.5469 31.9268 24.7055 32.0421 24.7487C32.1574 24.792 32.0421 24.8496 32.1142 24.9361C32.1888 25.0252 32.2897 25.0883 32.4025 25.1162C32.5106 25.1523 32.6043 25.2748 32.6835 25.2748C32.8721 25.2732 33.0575 25.2262 33.2241 25.1379C33.3563 24.9964 33.5124 24.8793 33.6853 24.792C33.9084 24.753 34.1278 24.6952 34.3411 24.619L34.5069 24.4604C34.631 24.3081 34.7152 24.1273 34.7519 23.9343C34.7918 23.7877 34.8207 23.6384 34.8384 23.4875V23.2857C34.8384 23.192 34.8384 23.0983 34.8384 23.0118C34.8384 22.7812 34.4853 22.5578 34.4492 22.2912C34.4132 22.0245 34.3844 22.0317 34.197 22.0101C34.1321 22.0101 34.0312 22.2984 33.851 22.2912H33.6348C33.3754 22.2551 33.0583 22.0461 32.7989 22.0677C32.721 22.0559 32.644 22.039 32.5682 22.0173H32.4673L32.2944 22.1254C32.1655 22.1762 32.0292 22.2054 31.8908 22.2119C31.6313 22.2119 31.6602 22.3488 31.5304 22.5506C31.4388 22.6763 31.3569 22.8088 31.2854 22.947L31.1989 23.2208H30.9683C30.8438 23.2063 30.7181 23.2063 30.5936 23.2208V23.3145C30.5936 23.3145 30.5935 23.4803 30.7377 23.4515L30.9683 23.3361ZM26.9324 16.6337L26.8964 16.5617L26.9468 16.3455C26.9829 16.295 26.7955 16.2085 26.709 16.1725L26.5721 16.3455C26.5216 16.3887 26.3487 16.504 26.4423 16.5472L26.6225 16.6626C26.6941 16.6983 26.7689 16.7272 26.846 16.749V16.9076L26.5721 17.0589L26.5216 17.1238V17.2175L26.5937 17.3328L26.6658 17.4409V17.4841L26.7523 17.5994C26.8012 17.6781 26.8648 17.7466 26.9396 17.8012C27.0462 17.8554 27.1497 17.9156 27.2495 17.9814L27.3072 18.0175L27.473 18.14L27.5811 18.2264C27.6603 18.3201 27.6387 18.3778 27.7756 18.421C27.9885 18.4861 28.209 18.5225 28.4315 18.5291H28.6333L28.799 18.3129C28.8999 18.2553 29.0585 18.3129 29.1666 18.2409C29.2818 18.2109 29.3914 18.1622 29.4909 18.0967C29.6533 17.9277 29.7938 17.7388 29.9089 17.5346C30.0387 17.2702 30.0644 16.9667 29.9809 16.6842C29.9161 16.3887 29.9377 16.0932 29.6495 15.9635L29.5053 15.8698L29.4332 15.7617C29.276 15.7324 29.1148 15.7324 28.9576 15.7617C28.5926 15.687 28.2189 15.6651 27.8477 15.6968C27.7324 15.7401 27.7036 15.8193 27.6099 15.8914C27.5162 15.9635 27.509 16.0716 27.4081 16.1653C27.312 16.2733 27.2363 16.3978 27.1847 16.5328C27.1126 16.6625 27.0261 16.6625 26.882 16.6698L26.9324 16.6337ZM37.9878 19.1634C37.9938 17.1771 37.6874 15.2023 37.0798 13.3113C37.0365 13.5203 37.0798 13.5131 36.9716 13.6861C36.8751 13.9397 36.8215 14.2076 36.8131 14.4789C36.8048 14.6109 36.8048 14.7432 36.8131 14.8752C36.8198 14.9929 36.8198 15.1108 36.8131 15.2284C36.8131 15.3797 36.8131 15.5383 36.8131 15.6824C36.8131 15.9707 36.8131 16.1869 36.8131 16.4752C36.8131 16.7634 36.8707 16.9076 36.8131 17.1959C36.8098 17.3422 36.7881 17.4875 36.7482 17.6283C36.6838 18.051 36.6838 18.4811 36.7482 18.9039C36.7929 19.0685 36.8171 19.2379 36.8203 19.4084C36.8203 19.5886 36.7771 19.7615 36.7771 19.9345C36.7915 20.2009 36.7915 20.468 36.7771 20.7345C36.7635 20.9745 36.7635 21.2151 36.7771 21.4551L36.7266 21.5921C36.7017 21.6817 36.7017 21.7764 36.7266 21.8659C36.7266 21.9596 36.7266 22.0605 36.7266 22.1614C36.7266 22.2623 36.5897 22.4065 36.532 22.5722L36.3735 22.8245C36.2798 22.9181 36.1789 22.8245 36.0996 22.8677C36.0203 22.9109 36.0276 23.1272 36.042 23.2353C36.1069 23.515 36.1069 23.8059 36.042 24.0857L35.9915 24.2586L36.0348 24.3451V24.446V24.6118C35.9721 24.7733 35.8975 24.9299 35.8113 25.0802C35.7367 25.1643 35.6547 25.2414 35.5663 25.3108C35.4692 25.4076 35.3422 25.4686 35.2059 25.4838C35.0826 25.548 34.9667 25.6253 34.86 25.7144C34.7485 25.7739 34.6445 25.8465 34.5501 25.9306C34.4493 26.0219 34.3318 26.0928 34.2042 26.1396C34.0963 26.1794 33.9855 26.2107 33.8727 26.2333C33.6016 26.3278 33.3248 26.4048 33.0439 26.4639C32.8205 26.4639 32.6547 26.363 32.4169 26.4207C32.1791 26.4783 32.1791 26.3486 32.0133 26.3126C31.8823 26.2661 31.7547 26.2107 31.6314 26.1469C31.4872 26.082 31.3287 25.9739 31.1701 25.8874C30.8933 25.704 30.6496 25.4749 30.4494 25.2099C30.3778 25.1198 30.2897 25.044 30.19 24.9865C30.19 25.1235 30.3269 25.1595 30.4278 25.2388C30.5287 25.3181 30.4926 25.3829 30.5142 25.4766V25.6928C30.5142 25.873 30.3197 25.9234 30.2908 26.0748C30.262 26.2261 30.4494 26.2982 30.435 26.4567C30.4131 26.5737 30.3767 26.6875 30.3269 26.7955C30.3054 26.9412 30.3054 27.0893 30.3269 27.2351C30.3054 27.4098 30.3054 27.5865 30.3269 27.7612C30.3706 27.9241 30.3706 28.0956 30.3269 28.2585C30.287 28.4389 30.287 28.6258 30.3269 28.8062C30.3485 29.0965 30.3485 29.388 30.3269 29.6782C30.3269 30.0242 30.3269 30.3629 30.3269 30.7016C30.3485 30.857 30.3485 31.0147 30.3269 31.1701C30.3269 31.2782 30.2404 31.2638 30.2044 31.3502C30.1683 31.4367 30.2044 31.6817 30.2044 31.8187C30.2224 32.162 30.2224 32.506 30.2044 32.8493C30.2044 33.2312 30.2044 33.57 30.2044 33.9735V34.233C32.0088 32.882 33.5604 31.2229 34.7879 29.3323C34.7333 29.2689 34.6873 29.1987 34.651 29.1233L34.9825 28.5611L34.2618 28.9792C34.2913 28.6847 34.2174 28.3891 34.0529 28.1432L34.3916 27.2783C34.3916 27.2783 35.0618 28.1071 35.5663 28.0351C37.0461 25.2956 37.8283 22.2337 37.8437 19.1201" fill="#E20011"/>
<path d="M46.8447 2.26318H51.0824C52.7976 2.26318 53.9652 2.81811 53.9652 4.49011C53.9771 4.89117 53.8661 5.2863 53.6471 5.62251C53.4281 5.95871 53.1116 6.21993 52.74 6.37113C53.2405 6.49678 53.6808 6.79452 53.9839 7.21221C54.287 7.6299 54.4334 8.1409 54.3976 8.65571C54.3976 10.4863 52.8409 11.2646 51.2193 11.2646H46.8519L46.8447 2.26318ZM48.8266 5.90266H50.8301C51.5508 5.90266 52.0409 5.59278 52.0409 4.83605C52.0409 4.07933 51.3851 3.79826 50.6788 3.79826H48.8266V5.90266ZM48.8266 9.72955H50.9455C51.7238 9.72955 52.3868 9.47729 52.3868 8.54039C52.3868 7.60349 51.8031 7.25756 50.9455 7.25756H48.7834L48.8266 9.72955Z" fill="white"/>
<path d="M63.2548 7.86294C63.2548 10.2989 61.8135 11.4664 59.4063 11.4664C56.9992 11.4664 55.5723 10.2917 55.5723 7.86294V2.26318H57.5542V7.86294C57.5542 8.84308 57.8064 9.81603 59.4063 9.81603C60.8477 9.81603 61.2729 9.19622 61.2729 7.86294V2.26318H63.2548V7.86294Z" fill="white"/>
<path d="M66.1953 8.28092C66.1953 9.47726 67.125 9.94571 68.1844 9.94571C68.9051 9.94571 69.9357 9.74392 69.9357 8.82143C69.9357 7.89895 68.588 7.68274 67.2619 7.3296C65.9359 6.97646 64.581 6.46477 64.581 4.76394C64.581 2.91898 66.3178 2.03973 67.9466 2.03973C69.8276 2.03973 71.55 2.86132 71.55 4.9225H69.6258C69.5682 3.84146 68.797 3.56038 67.8529 3.56038C67.2187 3.56038 66.4908 3.82705 66.4908 4.58377C66.4908 5.3405 66.916 5.36933 69.1718 5.94589C69.8276 6.11164 71.8456 6.52963 71.8456 8.56919C71.8456 10.2268 70.5483 11.452 68.1052 11.452C66.1088 11.452 64.2423 10.4718 64.2711 8.25208L66.1953 8.28092Z" fill="white"/>
<path d="M75.3915 2.26318H77.4167L80.7751 11.2502H78.7139L78.0365 9.24668H74.6709L73.9502 11.2502H71.9395L75.3915 2.26318ZM75.1969 7.78368H77.5536L76.4221 4.4829L75.1969 7.78368Z" fill="white"/>
<path d="M81.4382 2.26318H83.4057L87.1677 8.30257V2.26318H89.0847V11.2502H87.0668L83.3192 5.22523V11.2502H81.467L81.4382 2.26318Z" fill="white"/>
<path d="M46.7944 14.5149H48.7691V23.5019H46.7944V14.5149Z" fill="white"/>
<path d="M50.2104 17.0157H51.9113V17.931H51.9473C52.1592 17.594 52.4541 17.3171 52.8036 17.1265C53.1531 16.936 53.5456 16.8383 53.9436 16.8427C55.8462 16.8427 56.3291 17.9165 56.3291 19.5309V23.5019H54.5346V19.8192C54.5346 18.7526 54.2175 18.2193 53.3887 18.2193C52.4157 18.2193 51.9977 18.7598 51.9977 20.0858V23.5019H50.2104V17.0157Z" fill="white"/>
<path d="M59.8463 17.0157H61.1579V18.2193H59.8463V21.4479C59.8463 22.0533 59.9976 22.2047 60.603 22.2047C60.7891 22.2058 60.975 22.1889 61.1579 22.1542V23.5019C60.8118 23.5502 60.4624 23.5719 60.1129 23.5668C59.0102 23.5668 58.0517 23.3145 58.0517 22.0173V18.1688H56.9707V17.0157H58.0517V15.0626H59.8463V17.0157Z" fill="white"/>
<path d="M63.3775 20.6912C63.4279 21.8299 63.9828 22.3488 64.9774 22.3488C65.2755 22.3694 65.5728 22.2992 65.8301 22.1474C66.0875 21.9955 66.2927 21.7693 66.4188 21.4984H67.9971C67.8194 22.1583 67.4169 22.7355 66.859 23.1302C66.3011 23.525 65.6228 23.7125 64.9414 23.6605C64.4896 23.6823 64.0384 23.6077 63.6178 23.4416C63.1971 23.2756 62.8167 23.0218 62.5017 22.6973C62.1867 22.3728 61.9444 21.9849 61.791 21.5595C61.6375 21.1341 61.5765 20.6808 61.6118 20.23C61.589 19.7813 61.6587 19.3328 61.8164 18.9122C61.9742 18.4916 62.2167 18.1079 62.5289 17.7849C62.8411 17.4618 63.2163 17.2064 63.6313 17.0344C64.0463 16.8625 64.4922 16.7776 64.9414 16.7851C67.1611 16.7851 68.2349 18.6516 68.1124 20.6552L63.3775 20.6912ZM66.2602 19.5597C66.0945 18.6517 65.7053 18.1688 64.8189 18.1688C64.4377 18.1571 64.0675 18.297 63.7893 18.5576C63.511 18.8183 63.3474 19.1787 63.3342 19.5597H66.2602Z" fill="white"/>
<path d="M69.0278 17.0157H70.7287V18.2337C70.9037 17.8264 71.1928 17.4784 71.561 17.2317C71.9293 16.9849 72.361 16.8498 72.8043 16.8428C72.9388 16.8458 73.0722 16.8676 73.2007 16.9076V18.5724C72.9875 18.5269 72.77 18.5051 72.552 18.5076C71.2404 18.5076 70.7863 19.4517 70.7863 20.6048V23.5019H68.999L69.0278 17.0157Z" fill="white"/>
<path d="M74.0438 17.0157H75.7519V17.931C75.9621 17.5941 76.2556 17.3171 76.604 17.1265C76.9523 16.9359 77.3439 16.8382 77.741 16.8427C79.6508 16.8427 80.1265 17.9166 80.1265 19.5309V23.5019H78.3392V19.8192C78.3392 18.7526 78.022 18.2193 77.186 18.2193C76.2203 18.2193 75.8023 18.7598 75.8023 20.0859V23.5019H74.0078L74.0438 17.0157Z" fill="white"/>
<path d="M81.3372 19.0048C81.438 17.3256 82.9371 16.8428 84.4001 16.8428C85.6973 16.8428 87.2829 17.131 87.2829 18.6949V22.0606C87.2507 22.5522 87.3295 23.0449 87.5135 23.5019H85.6973C85.6286 23.299 85.5851 23.0885 85.5676 22.875C85.2789 23.1463 84.939 23.3574 84.5678 23.496C84.1966 23.6346 83.8015 23.6979 83.4055 23.6821C82.1659 23.6821 81.1858 23.0623 81.1858 21.7291C81.1858 20.2516 82.2957 19.8985 83.4055 19.7472C84.5154 19.5958 85.5244 19.6174 85.5244 18.8895C85.5244 18.1616 84.9911 18.0031 84.3641 18.0031C83.7371 18.0031 83.2398 18.2841 83.1749 18.9904L81.3372 19.0048ZM85.4811 20.3309C85.0159 20.5599 84.5075 20.6876 83.9893 20.7057C83.4344 20.821 82.9299 21.0084 82.9299 21.6642C82.9299 22.32 83.4488 22.5002 84.0325 22.5002C84.232 22.5182 84.433 22.4911 84.6206 22.4208C84.8081 22.3505 84.9774 22.2388 85.1159 22.0941C85.2544 21.9494 85.3585 21.7754 85.4205 21.5849C85.4824 21.3944 85.5007 21.1924 85.4739 20.9939L85.4811 20.3309Z" fill="white"/>
<path d="M90.8072 17.0157H92.1189V18.2193H90.8072V21.4479C90.8072 22.0533 90.9585 22.2047 91.5639 22.2047C91.7501 22.2058 91.9359 22.1889 92.1189 22.1542V23.5019C91.7727 23.5502 91.4233 23.5719 91.0738 23.5668C89.9784 23.5668 89.0198 23.3145 89.0198 22.0173V18.1688H87.9316V17.0157H89.0198V15.0626H90.8072V17.0157Z" fill="white"/>
<path d="M94.7061 15.9851H92.9116V14.5438H94.7061V15.9851ZM92.9116 16.9941H94.7061V23.4803H92.9116V16.9941Z" fill="white"/>
<path d="M99.1745 16.8212C99.857 16.8069 100.528 16.9961 101.103 17.3647C101.677 17.7333 102.129 18.2646 102.401 18.8909C102.672 19.5173 102.751 20.2103 102.627 20.8816C102.503 21.5529 102.183 22.1722 101.705 22.6605C101.228 23.1487 100.617 23.4839 99.9486 23.6233C99.2803 23.7627 98.5856 23.7 97.9531 23.4432C97.3207 23.1864 96.779 22.7471 96.3971 22.1812C96.0152 21.6154 95.8104 20.9487 95.8088 20.2661C95.7732 19.8114 95.8352 19.3543 95.9906 18.9256C96.1461 18.4968 96.3914 18.1063 96.7101 17.78C97.0288 17.4538 97.4136 17.1995 97.8386 17.0341C98.2636 16.8688 98.7191 16.7961 99.1745 16.8212ZM99.1745 22.3488C100.4 22.3488 100.767 21.2966 100.767 20.2661C100.767 19.2355 100.4 18.1689 99.1745 18.1689C97.9493 18.1689 97.6034 19.2139 97.6034 20.2661C97.6034 21.3183 97.9565 22.3488 99.1745 22.3488Z" fill="white"/>
<path d="M103.599 17.0157H105.3V17.9309C105.512 17.5935 105.806 17.3162 106.156 17.1256C106.505 16.935 106.898 16.8376 107.296 16.8427C109.199 16.8427 109.675 17.9165 109.675 19.5309V23.5019H107.887V19.8192C107.887 18.7526 107.57 18.2192 106.741 18.2192C105.769 18.2192 105.351 18.7598 105.351 20.0858V23.5019H103.563L103.599 17.0157Z" fill="white"/>
<path d="M110.886 19.0048C110.986 17.3256 112.486 16.8428 113.949 16.8428C115.246 16.8428 116.831 17.131 116.831 18.6949V22.0606C116.797 22.5517 116.874 23.0442 117.055 23.5019H115.239C115.17 23.299 115.126 23.0885 115.109 22.875C114.82 23.1463 114.48 23.3574 114.109 23.496C113.738 23.6346 113.343 23.6979 112.947 23.6821C111.707 23.6821 110.727 23.0623 110.727 21.7291C110.727 20.2516 111.837 19.8985 112.947 19.7472C114.057 19.5958 115.066 19.6174 115.066 18.8895C115.066 18.1616 114.532 18.0031 113.905 18.0031C113.278 18.0031 112.781 18.2841 112.716 18.9904L110.886 19.0048ZM115.03 20.3309C114.564 20.5599 114.056 20.6876 113.538 20.7057C112.983 20.821 112.478 21.0084 112.478 21.6642C112.478 22.32 112.997 22.5002 113.581 22.5002C113.78 22.5182 113.981 22.4911 114.169 22.4208C114.357 22.3505 114.526 22.2388 114.664 22.0941C114.803 21.9494 114.907 21.7754 114.969 21.5849C115.031 21.3944 115.049 21.1924 115.022 20.9939L115.03 20.3309Z" fill="white"/>
<path d="M118.136 14.5149H119.93V23.5019H118.136V14.5149Z" fill="white"/>
<path d="M124.81 14.5149H131.137V16.1797H126.813V18.2553H130.582V19.7975H126.813V23.5019H124.831L124.81 14.5149Z" fill="white"/>
<path d="M133.825 15.9851H132.038V14.5438H133.825V15.9851ZM132.038 17.0157H133.825V23.5019H132.038V17.0157Z" fill="white"/>
<path d="M135.208 14.5149H137.003V23.5019H135.208V14.5149Z" fill="white"/>
<path d="M138.315 17.0157H140.009V17.9021C140.226 17.572 140.522 17.3018 140.871 17.1166C141.22 16.9314 141.61 16.8372 142.005 16.8427C142.395 16.81 142.786 16.8965 143.126 17.0908C143.466 17.2851 143.738 17.5781 143.908 17.9309C144.12 17.6005 144.41 17.3279 144.754 17.1379C145.097 16.9479 145.483 16.8465 145.875 16.8427C147.259 16.8427 148.261 17.4841 148.261 19.1777V23.5019H146.466V19.8264C146.466 18.9543 146.394 18.2336 145.371 18.2336C144.347 18.2336 144.174 19.0697 144.174 19.884V23.4875H142.416V19.8984C142.416 19.1417 142.466 18.2697 141.335 18.2697C140.982 18.2697 140.124 18.5003 140.124 19.7687V23.5019H138.33L138.315 17.0157Z" fill="white"/>
<path d="M153.161 14.5149H159.489V16.1797H155.165V18.2553H158.934V19.7975H155.165V23.5019H153.183L153.161 14.5149Z" fill="white"/>
<path d="M161.81 20.6912C161.86 21.8299 162.415 22.3488 163.417 22.3488C163.715 22.3684 164.012 22.2978 164.269 22.146C164.526 21.9943 164.731 21.7686 164.858 21.4984H166.429C166.253 22.1577 165.852 22.7347 165.295 23.1296C164.739 23.5244 164.061 23.7122 163.381 23.6605C162.929 23.6823 162.478 23.6077 162.057 23.4417C161.637 23.2756 161.256 23.0218 160.941 22.6973C160.626 22.3728 160.384 21.9849 160.23 21.5595C160.077 21.1341 160.016 20.6808 160.051 20.23C160.027 19.7811 160.096 19.3321 160.254 18.911C160.411 18.4899 160.654 18.1058 160.966 17.7825C161.278 17.4593 161.654 17.2039 162.069 17.0323C162.485 16.8607 162.931 16.7765 163.381 16.7851C165.601 16.7851 166.674 18.6517 166.545 20.6552L161.81 20.6912ZM164.729 19.5597C164.563 18.6517 164.174 18.1688 163.287 18.1688C163.098 18.1621 162.909 18.1927 162.732 18.259C162.554 18.3253 162.391 18.4259 162.253 18.555C162.114 18.6842 162.003 18.8394 161.924 19.0118C161.846 19.1842 161.802 19.3704 161.795 19.5597H164.729Z" fill="white"/>
<path d="M168.851 21.3975C168.851 22.183 169.521 22.5001 170.227 22.5001C170.739 22.5001 171.395 22.2984 171.395 21.6641C171.395 21.0299 170.674 20.9434 169.37 20.6552C168.332 20.4317 167.301 20.0642 167.301 18.9183C167.301 17.2463 168.743 16.8211 170.134 16.8211C171.525 16.8211 172.872 17.2968 173.016 18.9039H171.316C171.265 18.1832 170.739 18.0175 170.09 18.0175C169.687 18.0175 169.096 18.0967 169.096 18.6228C169.096 19.2715 170.105 19.3435 171.128 19.5957C172.152 19.848 173.197 20.2155 173.197 21.4263C173.197 23.1416 171.705 23.6965 170.22 23.6965C168.736 23.6965 167.229 23.1271 167.157 21.3975H168.851Z" fill="white"/>
<path d="M176.389 17.0157H177.729V18.2193H176.418V21.4479C176.418 22.0533 176.569 22.2047 177.174 22.2047C177.361 22.2061 177.547 22.1892 177.729 22.1542V23.5019C177.383 23.5502 177.034 23.5719 176.684 23.5668C175.589 23.5668 174.63 23.3145 174.63 22.0173V18.1688H173.542V17.0157H174.63V15.0626H176.418L176.389 17.0157Z" fill="white"/>
<path d="M180.288 15.9851H178.494V14.5438H180.288V15.9851ZM178.494 16.9941H180.288V23.4803H178.494V16.9941Z" fill="white"/>
<path d="M185.196 23.5019H183.2L180.973 17.0157H182.846L184.223 21.4695L185.657 17.0157H187.437L185.196 23.5019Z" fill="white"/>
<path d="M187.956 19.0048C188.057 17.3256 189.556 16.8428 191.019 16.8428C192.323 16.8428 193.902 17.131 193.902 18.6949V22.0606C193.868 22.5517 193.944 23.0442 194.125 23.5019H192.309C192.239 23.2996 192.198 23.0886 192.186 22.875C191.897 23.145 191.557 23.3553 191.186 23.4938C190.815 23.6323 190.42 23.6963 190.024 23.6821C188.785 23.6821 187.805 23.0623 187.805 21.7291C187.805 20.2516 188.915 19.8985 190.024 19.7472C191.134 19.5958 192.143 19.6174 192.143 18.8895C192.143 18.1616 191.617 18.0031 190.983 18.0031C190.349 18.0031 189.859 18.2841 189.794 18.9904L187.956 19.0048ZM192.093 20.3309C191.63 20.5591 191.124 20.6868 190.608 20.7057C190.046 20.821 189.542 21.0084 189.542 21.6642C189.542 22.32 190.06 22.5002 190.644 22.5002C190.844 22.5182 191.045 22.4911 191.232 22.4208C191.42 22.3505 191.589 22.2388 191.728 22.0941C191.866 21.9494 191.97 21.7754 192.032 21.5849C192.094 21.3944 192.112 21.1924 192.086 20.9939L192.093 20.3309Z" fill="white"/>
<path d="M195.206 14.5149H197.001V23.5019H195.206V14.5149Z" fill="white"/>
<path d="M50.8162 29.2098C50.7764 28.9174 50.6358 28.648 50.4188 28.4481C50.2017 28.2481 49.9217 28.1301 49.627 28.1144C48.3298 28.1144 47.991 29.8152 47.9406 30.8025C48.1608 30.4811 48.4603 30.222 48.8101 30.0503C49.1598 29.8786 49.5479 29.8001 49.9369 29.8224C50.3195 29.8282 50.6969 29.9117 51.0463 30.0678C51.3956 30.2239 51.7097 30.4494 51.9693 30.7305C52.3327 31.1979 52.5602 31.7564 52.6269 32.3447C52.6937 32.933 52.597 33.5283 52.3475 34.0652C52.0981 34.6021 51.7054 35.0599 51.2128 35.3883C50.7201 35.7167 50.1466 35.9029 49.555 35.9266C46.8812 35.9266 46.1677 33.5916 46.1677 31.3575C46.1677 29.1233 47.1262 26.7451 49.6342 26.7451C50.3391 26.693 51.0363 26.9199 51.5755 27.3769C52.1147 27.8338 52.4528 28.4843 52.517 29.1882L50.8162 29.2098ZM48.1064 32.8133C48.0907 33.0159 48.1158 33.2197 48.1803 33.4125C48.2447 33.6053 48.3472 33.7832 48.4816 33.9357C48.6159 34.0882 48.7795 34.2122 48.9626 34.3005C49.1458 34.3887 49.3447 34.4392 49.5478 34.4492C49.9328 34.4126 50.2882 34.2271 50.5386 33.9324C50.7889 33.6376 50.9144 33.2568 50.8882 32.8709C50.8882 32.0349 50.4558 31.2061 49.5333 31.2061C49.3249 31.2057 49.1188 31.2505 48.9294 31.3374C48.7399 31.4243 48.5716 31.5512 48.4359 31.7095C48.3003 31.8677 48.2006 32.0535 48.1437 32.254C48.0868 32.4545 48.0741 32.665 48.1064 32.8709V32.8133Z" fill="white"/>
<path d="M55.7745 31.5592H61.6985V33.0943H55.7456L55.7745 31.5592Z" fill="white"/>
<path d="M68.1272 35.7536H66.3399V30.0313H64.1201V28.6909C65.3669 28.6909 66.5128 28.2873 66.7002 26.9396H68.1416L68.1272 35.7536Z" fill="white"/>
<path d="M76.3857 28.4171H72.7823L72.4292 30.4206C72.6516 30.1893 72.9212 30.0085 73.2196 29.8903C73.518 29.7722 73.8383 29.7196 74.1588 29.7359C75.8956 29.7359 76.883 31.0908 76.883 32.7412C76.8822 33.1669 76.7961 33.5882 76.6298 33.98C76.4634 34.3719 76.2202 34.7265 75.9145 35.0227C75.6088 35.319 75.2469 35.551 74.85 35.7051C74.4531 35.8591 74.0294 35.932 73.6039 35.9195C71.8886 35.9195 70.3463 34.9753 70.3247 33.116H72.112C72.1411 33.4779 72.3057 33.8156 72.5729 34.0614C72.8401 34.3073 73.1903 34.4432 73.5534 34.442C73.7659 34.4329 73.9743 34.3814 74.1665 34.2904C74.3587 34.1994 74.5307 34.0709 74.6725 33.9124C74.8142 33.7538 74.9228 33.5685 74.9917 33.3674C75.0607 33.1662 75.0887 32.9533 75.0741 32.7412C75.0932 32.5306 75.068 32.3184 75.0001 32.1182C74.9322 31.9179 74.8231 31.7342 74.6799 31.5787C74.5366 31.4232 74.3623 31.2994 74.1683 31.2154C73.9743 31.1314 73.7648 31.0889 73.5534 31.0908C73.2834 31.0761 73.0144 31.1355 72.7756 31.2625C72.5369 31.3895 72.3373 31.5794 72.1985 31.8115H70.5842L71.4562 26.9252H76.3857V28.4171Z" fill="white"/>
<path d="M85.2793 26.5504C88.0683 26.5504 89.7043 28.6332 89.7043 31.307C89.7043 33.9807 88.0683 35.9843 85.2793 35.9843C82.4902 35.9843 80.8542 33.9014 80.8542 31.307C80.8542 28.7125 82.4902 26.5504 85.2793 26.5504ZM85.2793 34.3195C87.0594 34.3195 87.7296 32.806 87.7296 31.307C87.7296 29.8079 87.0594 28.2152 85.2793 28.2152C83.4991 28.2152 82.8361 29.7286 82.8361 31.307C82.8361 32.8853 83.4991 34.3122 85.2793 34.3122V34.3195Z" fill="white"/>
<path d="M95.1963 31.5448C95.1836 31.3837 95.1391 31.2268 95.0655 31.0829C94.9918 30.9391 94.8905 30.8112 94.7672 30.7067C94.644 30.6022 94.5013 30.5232 94.3473 30.4741C94.1934 30.4249 94.0312 30.4068 93.8702 30.4206C92.7243 30.4206 92.3424 31.5809 92.3424 32.5394C92.3424 33.4979 92.7099 34.6006 93.8342 34.6006C94.0162 34.6093 94.1981 34.5818 94.3693 34.5196C94.5406 34.4575 94.6978 34.362 94.8319 34.2386C94.966 34.1153 95.0743 33.9665 95.1504 33.801C95.2266 33.6355 95.2691 33.4566 95.2756 33.2745H97.0125C96.9862 33.658 96.8836 34.0325 96.7105 34.3757C96.5374 34.719 96.2974 35.0242 96.0046 35.2733C95.7118 35.5224 95.3722 35.7105 95.0056 35.8264C94.6391 35.9423 94.253 35.9837 93.8702 35.9482C93.429 35.9661 92.9889 35.8914 92.5782 35.7288C92.1676 35.5663 91.7955 35.3196 91.4859 35.0046C91.1763 34.6896 90.9361 34.3133 90.7808 33.8999C90.6254 33.4865 90.5584 33.0452 90.5839 32.6043C90.5839 30.5719 91.7947 29.0729 93.9135 29.0729C95.4486 29.0729 96.8611 29.88 96.9764 31.5448H95.1963Z" fill="white"/>
<path d="M100.147 29.2674H101.459V30.471H100.147V33.6996C100.147 34.305 100.298 34.4564 100.868 34.4564C101.054 34.4578 101.24 34.4409 101.423 34.4059V35.7536C101.076 35.8019 100.727 35.8236 100.378 35.8185C99.2821 35.8185 98.3236 35.5662 98.3236 34.269V30.4205H97.2354V29.2674H98.3236V27.3143H100.111L100.147 29.2674Z" fill="white"/>
<path d="M105.372 29.0729C106.055 29.0586 106.726 29.2478 107.301 29.6164C107.875 29.985 108.327 30.5163 108.598 31.1427C108.87 31.769 108.949 32.462 108.825 33.1333C108.701 33.8046 108.38 34.4239 107.903 34.9122C107.426 35.4004 106.815 35.7356 106.146 35.875C105.478 36.0145 104.783 35.9517 104.151 35.6949C103.518 35.4381 102.977 34.9988 102.595 34.4329C102.213 33.8671 102.008 33.2004 102.007 32.5178C101.971 32.0631 102.033 31.6061 102.188 31.1773C102.344 30.7485 102.589 30.358 102.908 30.0318C103.227 29.7055 103.611 29.4512 104.036 29.2858C104.461 29.1205 104.917 29.0479 105.372 29.0729ZM105.372 34.6006C106.597 34.6006 106.958 33.5484 106.958 32.5178C106.958 31.4872 106.597 30.4206 105.372 30.4206C104.147 30.4206 103.794 31.4656 103.794 32.5178C103.794 33.57 104.161 34.6006 105.372 34.6006Z" fill="white"/>
<path d="M109.797 26.7667H111.592V30.0458C111.827 29.7265 112.138 29.4706 112.496 29.3008C112.855 29.131 113.25 29.0527 113.646 29.0729C114.95 29.0729 116.348 30.1179 116.348 32.5034C116.348 34.8888 114.95 35.9483 113.646 35.9483C113.227 35.9999 112.802 35.9326 112.42 35.7542C112.038 35.5758 111.713 35.2934 111.484 34.9393V35.7537H109.783L109.797 26.7667ZM113.055 30.4206C111.996 30.4206 111.527 31.4223 111.527 32.5178C111.527 33.6132 111.996 34.6006 113.055 34.6006C114.114 34.6006 114.576 33.5988 114.576 32.5178C114.576 31.4367 114.114 30.4206 113.055 30.4206Z" fill="white"/>
<path d="M118.863 32.9429C118.914 34.0816 119.469 34.6005 120.471 34.6005C120.768 34.6201 121.065 34.5495 121.323 34.3978C121.58 34.246 121.785 34.0204 121.912 33.7501H123.483C123.307 34.4095 122.906 34.9865 122.349 35.3813C121.792 35.7761 121.115 35.9639 120.435 35.9122C119.983 35.934 119.532 35.8594 119.111 35.6934C118.69 35.5273 118.31 35.2736 117.995 34.949C117.68 34.6245 117.438 34.2366 117.284 33.8112C117.131 33.3858 117.07 32.9326 117.105 32.4817C117.081 32.0328 117.15 31.5838 117.307 31.1627C117.465 30.7416 117.707 30.3575 118.02 30.0342C118.332 29.711 118.708 29.4556 119.123 29.284C119.539 29.1124 119.985 29.0282 120.435 29.0368C122.654 29.0368 123.728 30.9034 123.598 32.9069L118.863 32.9429ZM121.746 31.8114C121.58 30.9034 121.191 30.4205 120.305 30.4205C120.115 30.4138 119.927 30.4444 119.749 30.5107C119.572 30.577 119.409 30.6776 119.271 30.8068C119.132 30.9359 119.02 31.0911 118.942 31.2635C118.863 31.4359 118.819 31.6221 118.813 31.8114H121.746Z" fill="white"/>
<path d="M124.514 29.2674H126.222V30.4854C126.399 30.0781 126.689 29.7304 127.059 29.4837C127.428 29.2371 127.861 29.1019 128.305 29.0945C128.437 29.0982 128.568 29.12 128.694 29.1593V30.8241C128.483 30.7786 128.268 30.7568 128.052 30.7593C126.741 30.7593 126.287 31.7034 126.287 32.8565V35.7537H124.492L124.514 29.2674Z" fill="white"/>
<path d="M132.484 30.3341C132.42 28.3162 133.573 26.7306 135.692 26.7306C136.074 26.7011 136.459 26.7502 136.822 26.875C137.185 26.9997 137.518 27.1975 137.802 27.4561C138.086 27.7148 138.313 28.0287 138.471 28.3787C138.628 28.7286 138.713 29.1071 138.718 29.4909C138.714 30.036 138.565 30.5702 138.288 31.0397C138.011 31.5091 137.615 31.8972 137.14 32.1646C136.183 32.693 135.323 33.3802 134.596 34.197H138.769V35.7537H132.283C132.283 33.7141 133.544 32.8709 135.072 31.8115C135.857 31.2782 136.917 30.7377 136.924 29.6494C136.936 29.4711 136.911 29.2921 136.849 29.1242C136.788 28.9563 136.692 28.8032 136.568 28.6748C136.443 28.5463 136.293 28.4455 136.128 28.3787C135.962 28.312 135.784 28.2809 135.605 28.2873C134.546 28.2873 134.2 29.3828 134.2 30.3197L132.484 30.3341Z" fill="white"/>
<path d="M142.416 26.7667C144.181 26.7667 145.666 27.8765 145.666 31.3214C145.666 34.7663 144.181 35.9483 142.416 35.9483C140.65 35.9483 139.18 34.8384 139.18 31.3214C139.18 27.8045 140.672 26.7667 142.416 26.7667ZM142.416 34.4708C143.857 34.4708 143.857 32.3088 143.857 31.3214C143.857 30.3341 143.857 28.2369 142.416 28.2369C140.974 28.2369 140.974 30.3989 140.974 31.3214C140.974 32.2439 140.974 34.4708 142.416 34.4708Z" fill="white"/>
<path d="M146.286 30.3341C146.221 28.3162 147.367 26.7306 149.486 26.7306C149.869 26.7011 150.253 26.7502 150.616 26.875C150.979 26.9997 151.313 27.1975 151.596 27.4561C151.88 27.7148 152.108 28.0287 152.265 28.3787C152.423 28.7286 152.507 29.1071 152.513 29.4909C152.508 30.0351 152.361 30.5686 152.085 31.0378C151.809 31.5071 151.415 31.8957 150.942 32.1646C150.07 32.7844 149.032 33.2889 148.391 34.197H152.563V35.7537H146.077C146.077 33.7141 147.338 32.8709 148.866 31.8115C149.645 31.2782 150.704 30.7377 150.718 29.6494C150.731 29.4705 150.705 29.2909 150.643 29.1225C150.582 28.954 150.485 28.8006 150.36 28.672C150.235 28.5435 150.084 28.4427 149.917 28.3765C149.75 28.3102 149.572 28.2798 149.392 28.2873C148.333 28.2873 147.994 29.3828 147.994 30.3197L146.286 30.3341Z" fill="white"/>
<path d="M157.658 35.7536H155.871V30.0313H153.651V28.6909C154.898 28.6909 156.044 28.2873 156.231 26.9396H157.673L157.658 35.7536Z" fill="white"/>
</svg>
